<svg xmlns="http://www.w3.org/2000/svg" width="1200" height="340" viewBox="0 0 1200 340" role="img" aria-labelledby="title desc"><title id="title">Build activity — weekly contributions</title><desc id="desc">NERV MAGI terminal-style bar chart of weekly GitHub contributions over the last year, identical in light and dark mode.</desc><defs><linearGradient id="bg" x1="0" y1="0" x2="0" y2="1"><stop offset="0" stop-color="#050609"/><stop offset="1" stop-color="#0a0c12"/></linearGradient><pattern id="gridFine" width="8" height="8" patternUnits="userSpaceOnUse"><path d="M8 0H0V8" fill="none" stroke="#ff6a00" stroke-opacity=".05"/></pattern><pattern id="gridBold" width="40" height="40" patternUnits="userSpaceOnUse"><path d="M40 0H0V40" fill="none" stroke="#ff6a00" stroke-opacity=".08"/></pattern><style>text{font-family:ui-monospace,'SF Mono',SFMono-Regular,Menlo,Consolas,'Liberation Mono',monospace;}.scan{animation:scan 16s linear infinite;}@keyframes scan{to{transform:translateX(1180px);}}@media (prefers-reduced-motion:reduce){.scan{animation:none;}}</style></defs><rect width="1200" height="340" fill="url(#bg)"/><rect width="1200" height="340" fill="url(#gridFine)"/><rect width="1200" height="340" fill="url(#gridBold)"/><rect x="2" y="2" width="1196" height="336" fill="none" stroke="#d9a877" stroke-opacity=".5" stroke-width="2.5"/><rect x="10" y="10" width="1180" height="320" fill="none" stroke="#d9a877" stroke-opacity=".28"/><g stroke="#d9a877" stroke-opacity=".3" stroke-width="6" stroke-dasharray="1 39"><line x1="10" y1="13" x2="1190" y2="13"/><line x1="10" y1="327" x2="1190" y2="327"/><line x1="13" y1="10" x2="13" y2="330"/><line x1="1187" y1="10" x2="1187" y2="330"/></g><rect class="scan" x="10" y="10" width="1" height="320" fill="#d9a877" fill-opacity=".16"/><text x="54" y="56" font-size="17.5" font-weight="700" letter-spacing="5" fill="#ffb000">BUILD ACTIVITY</text><text x="1146" y="56" text-anchor="end" font-size="14.5" font-weight="700" letter-spacing="2" fill="#ffe2c4">Σ 992 CONTRIBUTIONS / 365 DAYS</text><path d="M70 90H1140" stroke="#d9a877" stroke-opacity=".18" stroke-dasharray="3 6" fill="none"/><text x="62" y="94" text-anchor="end" font-size="12" fill="#9a7048">219</text><path d="M70 181H1140" stroke="#d9a877" stroke-opacity=".18" stroke-dasharray="3 6" fill="none"/><text x="62" y="185" text-anchor="end" font-size="12" fill="#9a7048">109</text><text x="62" y="276" text-anchor="end" font-size="12" fill="#9a7048">0</text><path d="M66 272H1144" stroke="#d9a877" stroke-opacity=".6" fill="none"/><text x="93.8" y="296" font-size="12.5" letter-spacing="2" fill="#9a7048">SEP</text><path d="M93.8 272v6" stroke="#d9a877" stroke-opacity=".5" fill="none"/><text x="174.5" y="296" font-size="12.5" letter-spacing="2" fill="#9a7048">OCT</text><path d="M174.5 272v6" stroke="#d9a877" stroke-opacity=".5" fill="none"/><text x="255.3" y="296" font-size="12.5" letter-spacing="2" fill="#9a7048">NOV</text><path d="M255.3 272v6" stroke="#d9a877" stroke-opacity=".5" fill="none"/><text x="356.2" y="296" font-size="12.5" letter-spacing="2" fill="#9a7048">DEC</text><path d="M356.2 272v6" stroke="#d9a877" stroke-opacity=".5" fill="none"/><text x="437.0" y="296" font-size="12.5" letter-spacing="2" fill="#9a7048">JAN</text><path d="M437.0 272v6" stroke="#d9a877" stroke-opacity=".5" fill="none"/><text x="517.7" y="296" font-size="12.5" letter-spacing="2" fill="#9a7048">FEB</text><path d="M517.7 272v6" stroke="#d9a877" stroke-opacity=".5" fill="none"/><text x="598.5" y="296" font-size="12.5" letter-spacing="2" fill="#9a7048">MAR</text><path d="M598.5 272v6" stroke="#d9a877" stroke-opacity=".5" fill="none"/><text x="699.4" y="296" font-size="12.5" letter-spacing="2" fill="#9a7048">APR</text><path d="M699.4 272v6" stroke="#d9a877" stroke-opacity=".5" fill="none"/><rect class="bar" x="739.8" y="261.2" width="13.0" height="10.8" fill="#ffb000" fill-opacity=".5" stroke="#ffb000" stroke-opacity=".9"/><rect class="bar" x="760.0" y="260.4" width="13.0" height="11.6" fill="#ffb000" fill-opacity=".5" stroke="#ffb000" stroke-opacity=".9"/><text x="780.2" y="296" font-size="12.5" letter-spacing="2" fill="#9a7048">MAY</text><path d="M780.2 272v6" stroke="#d9a877" stroke-opacity=".5" fill="none"/><rect class="bar" x="780.2" y="261.2" width="13.0" height="10.8" fill="#ffb000" fill-opacity=".5" stroke="#ffb000" stroke-opacity=".9"/><rect class="bar" x="800.4" y="260.4" width="13.0" height="11.6" fill="#ffb000" fill-opacity=".5" stroke="#ffb000" stroke-opacity=".9"/><rect class="bar" x="820.6" y="264.5" width="13.0" height="7.5" fill="#ffb000" fill-opacity=".5" stroke="#ffb000" stroke-opacity=".9"/><rect class="bar" x="840.8" y="261.2" width="13.0" height="10.8" fill="#ffb000" fill-opacity=".5" stroke="#ffb000" stroke-opacity=".9"/><rect class="bar" x="861.0" y="263.7" width="13.0" height="8.3" fill="#ffb000" fill-opacity=".5" stroke="#ffb000" stroke-opacity=".9"/><text x="881.1" y="296" font-size="12.5" letter-spacing="2" fill="#9a7048">JUN</text><path d="M881.1 272v6" stroke="#d9a877" stroke-opacity=".5" fill="none"/><rect class="bar" x="881.1" y="248.7" width="13.0" height="23.3" fill="#ffb000" fill-opacity=".5" stroke="#ffb000" stroke-opacity=".9"/><rect class="bar" x="901.3" y="243.7" width="13.0" height="28.3" fill="#ffb000" fill-opacity=".5" stroke="#ffb000" stroke-opacity=".9"/><rect class="bar" x="921.5" y="260.4" width="13.0" height="11.6" fill="#ffb000" fill-opacity=".5" stroke="#ffb000" stroke-opacity=".9"/><rect class="bar" x="941.7" y="259.5" width="13.0" height="12.5" fill="#ffb000" fill-opacity=".5" stroke="#ffb000" stroke-opacity=".9"/><text x="961.9" y="296" font-size="12.5" letter-spacing="2" fill="#9a7048">JUL</text><path d="M961.9 272v6" stroke="#d9a877" stroke-opacity=".5" fill="none"/><rect class="bar" x="961.9" y="242.1" width="13.0" height="29.9" fill="#ffb000" fill-opacity=".5" stroke="#ffb000" stroke-opacity=".9"/><rect class="bar" x="982.1" y="139.9" width="13.0" height="132.1" fill="#ffb000" fill-opacity=".5" stroke="#ffb000" stroke-opacity=".9"/><rect class="bar" x="1002.3" y="213.0" width="13.0" height="59.0" fill="#ffb000" fill-opacity=".5" stroke="#ffb000" stroke-opacity=".9"/><rect class="bar" x="1022.5" y="234.6" width="13.0" height="37.4" fill="#ffb000" fill-opacity=".5" stroke="#ffb000" stroke-opacity=".9"/><text x="1042.7" y="296" font-size="12.5" letter-spacing="2" fill="#9a7048">AUG</text><path d="M1042.7 272v6" stroke="#d9a877" stroke-opacity=".5" fill="none"/><rect class="bar" x="1042.7" y="203.9" width="13.0" height="68.1" fill="#ffb000" fill-opacity=".5" stroke="#ffb000" stroke-opacity=".9"/><rect class="bar" x="1062.8" y="90.0" width="13.0" height="182.0" fill="#ff2d2d" fill-opacity=".75" stroke="#ff2d2d" stroke-opacity=".9"/><rect class="bar" x="1083.0" y="171.4" width="13.0" height="100.6" fill="#ffb000" fill-opacity=".5" stroke="#ffb000" stroke-opacity=".9"/><rect class="bar" x="1103.2" y="228.8" width="13.0" height="43.2" fill="#ffb000" fill-opacity=".5" stroke="#ffb000" stroke-opacity=".9"/><rect class="bar" x="1123.4" y="247.1" width="13.0" height="24.9" fill="#ffb000" fill-opacity=".5" stroke="#ffb000" stroke-opacity=".9"/><path d="M1069.3 86.0v-18h-42" stroke="#ff2d2d" stroke-opacity=".9" fill="none"/><text x="1021.3" y="72.0" text-anchor="end" font-size="13.5" font-weight="800" letter-spacing="2" fill="#ff2d2d">PEAK — 219/WK</text><text x="1146" y="320" text-anchor="end" font-size="12" letter-spacing="4" fill="#9a7048">NERV // BUILD TELEMETRY · 가동 기록</text></svg>