<svg xmlns="http://www.w3.org/2000/svg" width="1200" height="340" viewBox="0 0 1200 340" role="img" aria-labelledby="title desc"><title id="title">Build activity — weekly contributions</title><desc id="desc">NERV MAGI terminal-style bar chart of weekly GitHub contributions over the last year, identical in light and dark mode.</desc><defs><linearGradient id="bg" x1="0" y1="0" x2="0" y2="1"><stop offset="0" stop-color="#050609"/><stop offset="1" stop-color="#0a0c12"/></linearGradient><pattern id="gridFine" width="8" height="8" patternUnits="userSpaceOnUse"><path d="M8 0H0V8" fill="none" stroke="#ff6a00" stroke-opacity=".05"/></pattern><pattern id="gridBold" width="40" height="40" patternUnits="userSpaceOnUse"><path d="M40 0H0V40" fill="none" stroke="#ff6a00" stroke-opacity=".08"/></pattern><style>text{font-family:ui-monospace,'SF Mono',SFMono-Regular,Menlo,Consolas,'Liberation Mono',monospace;}.scan{animation:scan 16s linear infinite;}@keyframes scan{to{transform:translateX(1180px);}}@media (prefers-reduced-motion:reduce){.scan{animation:none;}}</style></defs><rect width="1200" height="340" fill="url(#bg)"/><rect width="1200" height="340" fill="url(#gridFine)"/><rect width="1200" height="340" fill="url(#gridBold)"/><rect x="2" y="2" width="1196" height="336" fill="none" stroke="#d9a877" stroke-opacity=".5" stroke-width="2.5"/><rect x="10" y="10" width="1180" height="320" fill="none" stroke="#d9a877" stroke-opacity=".28"/><g stroke="#d9a877" stroke-opacity=".3" stroke-width="6" stroke-dasharray="1 39"><line x1="10" y1="13" x2="1190" y2="13"/><line x1="10" y1="327" x2="1190" y2="327"/><line x1="13" y1="10" x2="13" y2="330"/><line x1="1187" y1="10" x2="1187" y2="330"/></g><rect class="scan" x="10" y="10" width="1" height="320" fill="#d9a877" fill-opacity=".16"/><text x="54" y="54" font-size="14" font-weight="700" letter-spacing="3" fill="#ffb000">BUILD ACTIVITY</text><text x="1146" y="54" text-anchor="end" font-size="12" font-weight="700" letter-spacing="1" fill="#ffe2c4">Σ 411 CONTRIBUTIONS / 365 DAYS</text><path d="M70 90H1140" stroke="#d9a877" stroke-opacity=".18" stroke-dasharray="3 6" fill="none"/><text x="62" y="93" text-anchor="end" font-size="9" fill="#9a7048">138</text><path d="M70 181H1140" stroke="#d9a877" stroke-opacity=".18" stroke-dasharray="3 6" fill="none"/><text x="62" y="184" text-anchor="end" font-size="9" fill="#9a7048">69</text><text x="62" y="275" text-anchor="end" font-size="9" fill="#9a7048">0</text><path d="M66 272H1144" stroke="#d9a877" stroke-opacity=".6" fill="none"/><text x="114.0" y="290" font-size="9.5" letter-spacing="1" fill="#9a7048">AUG</text><path d="M114.0 272v5" stroke="#d9a877" stroke-opacity=".5" fill="none"/><text x="214.9" y="290" font-size="9.5" letter-spacing="1" fill="#9a7048">SEP</text><path d="M214.9 272v5" stroke="#d9a877" stroke-opacity=".5" fill="none"/><text x="295.7" y="290" font-size="9.5" letter-spacing="1" fill="#9a7048">OCT</text><path d="M295.7 272v5" stroke="#d9a877" stroke-opacity=".5" fill="none"/><text x="376.4" y="290" font-size="9.5" letter-spacing="1" fill="#9a7048">NOV</text><path d="M376.4 272v5" stroke="#d9a877" stroke-opacity=".5" fill="none"/><text x="477.4" y="290" font-size="9.5" letter-spacing="1" fill="#9a7048">DEC</text><path d="M477.4 272v5" stroke="#d9a877" stroke-opacity=".5" fill="none"/><text x="558.1" y="290" font-size="9.5" letter-spacing="1" fill="#9a7048">JAN</text><path d="M558.1 272v5" stroke="#d9a877" stroke-opacity=".5" fill="none"/><rect class="bar" x="558.1" y="237.7" width="13.0" height="34.3" fill="#ffb000" fill-opacity=".5" stroke="#ffb000" stroke-opacity=".9"/><text x="638.9" y="290" font-size="9.5" letter-spacing="1" fill="#9a7048">FEB</text><path d="M638.9 272v5" stroke="#d9a877" stroke-opacity=".5" fill="none"/><text x="719.6" y="290" font-size="9.5" letter-spacing="1" fill="#9a7048">MAR</text><path d="M719.6 272v5" stroke="#d9a877" stroke-opacity=".5" fill="none"/><text x="820.6" y="290" font-size="9.5" letter-spacing="1" fill="#9a7048">APR</text><path d="M820.6 272v5" stroke="#d9a877" stroke-opacity=".5" fill="none"/><rect class="bar" x="861.0" y="254.9" width="13.0" height="17.1" fill="#ffb000" fill-opacity=".5" stroke="#ffb000" stroke-opacity=".9"/><rect class="bar" x="881.1" y="253.5" width="13.0" height="18.5" fill="#ffb000" fill-opacity=".5" stroke="#ffb000" stroke-opacity=".9"/><text x="901.3" y="290" font-size="9.5" letter-spacing="1" fill="#9a7048">MAY</text><path d="M901.3 272v5" stroke="#d9a877" stroke-opacity=".5" fill="none"/><rect class="bar" x="901.3" y="254.9" width="13.0" height="17.1" fill="#ffb000" fill-opacity=".5" stroke="#ffb000" stroke-opacity=".9"/><rect class="bar" x="921.5" y="253.5" width="13.0" height="18.5" fill="#ffb000" fill-opacity=".5" stroke="#ffb000" stroke-opacity=".9"/><rect class="bar" x="941.7" y="260.1" width="13.0" height="11.9" fill="#ffb000" fill-opacity=".5" stroke="#ffb000" stroke-opacity=".9"/><rect class="bar" x="961.9" y="254.9" width="13.0" height="17.1" fill="#ffb000" fill-opacity=".5" stroke="#ffb000" stroke-opacity=".9"/><rect class="bar" x="982.1" y="258.8" width="13.0" height="13.2" fill="#ffb000" fill-opacity=".5" stroke="#ffb000" stroke-opacity=".9"/><text x="1002.3" y="290" font-size="9.5" letter-spacing="1" fill="#9a7048">JUN</text><path d="M1002.3 272v5" stroke="#d9a877" stroke-opacity=".5" fill="none"/><rect class="bar" x="1002.3" y="250.9" width="13.0" height="21.1" fill="#ffb000" fill-opacity=".5" stroke="#ffb000" stroke-opacity=".9"/><rect class="bar" x="1022.5" y="227.2" width="13.0" height="44.8" fill="#ffb000" fill-opacity=".5" stroke="#ffb000" stroke-opacity=".9"/><rect class="bar" x="1042.7" y="253.5" width="13.0" height="18.5" fill="#ffb000" fill-opacity=".5" stroke="#ffb000" stroke-opacity=".9"/><rect class="bar" x="1062.8" y="252.2" width="13.0" height="19.8" fill="#ffb000" fill-opacity=".5" stroke="#ffb000" stroke-opacity=".9"/><text x="1083.0" y="290" font-size="9.5" letter-spacing="1" fill="#9a7048">JUL</text><path d="M1083.0 272v5" stroke="#d9a877" stroke-opacity=".5" fill="none"/><rect class="bar" x="1083.0" y="224.5" width="13.0" height="47.5" fill="#ffb000" fill-opacity=".5" stroke="#ffb000" stroke-opacity=".9"/><rect class="bar" x="1103.2" y="90.0" width="13.0" height="182.0" fill="#ff2d2d" fill-opacity=".75" stroke="#ff2d2d" stroke-opacity=".9"/><rect class="bar" x="1123.4" y="211.3" width="13.0" height="60.7" fill="#ffb000" fill-opacity=".5" stroke="#ffb000" stroke-opacity=".9"/><path d="M1109.7 86.0v-16h-40" stroke="#ff2d2d" stroke-opacity=".9" fill="none"/><text x="1063.7" y="74.0" text-anchor="end" font-size="10.5" font-weight="800" letter-spacing="1" fill="#ff2d2d">PEAK — 138/WK</text><text x="1146" y="319" text-anchor="end" font-size="8.5" letter-spacing="2" fill="#9a7048">NERV // BUILD TELEMETRY · 가동 기록</text></svg>