<svg xmlns="http://www.w3.org/2000/svg" width="1200" height="200" viewBox="0 0 1200 200" role="img" aria-labelledby="title desc"><title id="title">Field results — peer-reviewed research produced with the co-scientist system</title><desc id="desc">NERV MAGI terminal-style publication record in Evangelion HUD aesthetic, identical in light and dark mode.</desc>
<defs><linearGradient id="bg" x1="0" y1="0" x2="0" y2="1"><stop offset="0" stop-color="#050609"/><stop offset="1" stop-color="#0a0c12"/></linearGradient><radialGradient id="glow" cx=".5" cy="-.2" r="1"><stop offset="0" stop-color="#ff6a00" stop-opacity=".10"/><stop offset="1" stop-color="#ff6a00" stop-opacity="0"/></radialGradient><radialGradient id="vig" cx=".5" cy=".5" r=".75"><stop offset=".62" stop-color="#000" stop-opacity="0"/><stop offset="1" stop-color="#000" stop-opacity=".45"/></radialGradient><pattern id="hexes" width="48" height="27.713" patternUnits="userSpaceOnUse"><path d="M16.0 0.0L8.0 13.9L-8.0 13.9L-16.0 0.0L-8.0 -13.9L8.0 -13.9ZM64.0 0.0L56.0 13.9L40.0 13.9L32.0 0.0L40.0 -13.9L56.0 -13.9ZM16.0 27.7L8.0 41.6L-8.0 41.6L-16.0 27.7L-8.0 13.9L8.0 13.9ZM64.0 27.7L56.0 41.6L40.0 41.6L32.0 27.7L40.0 13.9L56.0 13.9ZM40.0 13.9L32.0 27.7L16.0 27.7L8.0 13.9L16.0 0.0L32.0 0.0Z" fill="none" stroke="#ff6a00" stroke-opacity=".07"/></pattern><pattern id="crt" width="4" height="3" patternUnits="userSpaceOnUse"><rect width="4" height="1" fill="#ffe2c4" fill-opacity=".04"/></pattern><pattern id="hz" width="12" height="12" patternUnits="userSpaceOnUse" patternTransform="rotate(45)"><rect width="6" height="12" fill="#ff6a00"/></pattern><style>text{font-family:ui-monospace,'SF Mono',SFMono-Regular,Menlo,Consolas,'Liberation Mono',monospace;}.scan{animation:scan 16s linear infinite;}@keyframes scan{to{transform:translateX(1180px);}}.blink{animation:blink 1.6s steps(1) infinite;}@keyframes blink{0%,49%{opacity:1;}50%,100%{opacity:.15;}}.pulse{animation:pulse 2.4s ease-in-out infinite;}@keyframes pulse{50%{opacity:.3;}}.flow{stroke-dasharray:5 7;animation:flow 12s linear infinite;}@keyframes flow{to{stroke-dashoffset:-96;}}@media (prefers-reduced-motion:reduce){.scan,.blink,.pulse,.flow{animation:none;}}</style></defs>
<rect width="1200" height="200" fill="url(#bg)"/><rect width="1200" height="200" fill="url(#glow)"/><rect width="1200" height="200" fill="url(#hexes)"/><rect width="1200" height="200" fill="url(#crt)"/><rect width="1200" height="200" fill="url(#vig)"/>
<rect x="2" y="2" width="1196" height="7" fill="url(#hz)" opacity=".75"/><line x1="2" y1="10" x2="1198" y2="10" stroke="#000" stroke-width="1.5"/><rect x="2" y="2" width="1196" height="196" fill="none" stroke="#ff6a00" stroke-opacity=".4" stroke-width="2"/>
<text x="54" y="48" font-size="13" font-weight="800" letter-spacing="3" fill="#ffe2c4" font-family="'Hiragino Kaku Gothic ProN','Yu Gothic','Noto Sans JP',sans-serif"><tspan fill="#ff6a00">▣</tspan> FIELD RESULTS <tspan fill="#9a7048">— 実績記録</tspan></text><line x1="54" y1="60" x2="1146" y2="60" stroke="#8a3c00" stroke-opacity=".7"/><line x1="940" y1="60" x2="1146" y2="60" stroke="#ff2d2d" stroke-width="2" stroke-opacity=".8"/><text x="1146" y="48" text-anchor="end" font-size="9" letter-spacing="2" fill="#9a7048">NERV // RESEARCH RECORDS</text>
<g id="row-r01">
<rect x="54" y="76" width="4" height="92" fill="#ff6a00" opacity=".85"/>
<text x="74" y="96" font-size="10" font-weight="800" letter-spacing="1" fill="#ffb000">[ R-01 ]</text>
<text x="160" y="96" font-size="13.5" font-weight="700" fill="#ffe2c4">Building an agentic AI-based co-researcher system:</text>
<text x="160" y="116" font-size="13.5" font-weight="700" fill="#ffe2c4">An autoethnographic reflection of an educational technology researcher</text>
<text x="160" y="140" font-size="10.5" fill="#9a7048">Lim, T. · The Journal of Educational Information and Media · 32(2), 701–728 · KCI · in Korean</text>
<text x="160" y="160" font-size="10.5" fill="#d9a877">DOI 10.15833/KAFEIAM.32.2.701</text>
<path d="M946 78H1084L1090 84V98L1084 104H946L940 98V84Z" fill="none" stroke="#ff6a00" stroke-opacity=".22" stroke-width="4.5"/><path d="M946 78H1084L1090 84V98L1084 104H946L940 98V84Z" fill="#10131c" fill-opacity=".85" stroke="#ff6a00" stroke-opacity=".85" stroke-width="1.5"/>
<text x="1015" y="95" text-anchor="middle" font-size="10" letter-spacing="2" fill="#ffe2c4">PUBLISHED 2026.04</text>
<text x="1146" y="160" text-anchor="end" font-size="11" font-weight="800" letter-spacing="2" fill="#ff9233">READ THE PAPER →</text>
</g>
<text x="1146" y="184" text-anchor="end" font-size="8.5" letter-spacing="2" fill="#9a7048" font-family="'Hiragino Kaku Gothic ProN','Yu Gothic','Noto Sans JP',sans-serif">NERV // PEER-REVIEWED · 査読済</text>
<rect class="scan" x="10" y="10" width="1" height="180" fill="#ffe2c4" fill-opacity=".14"/>
</svg>
