<svg xmlns="http://www.w3.org/2000/svg" width="1200" height="200" viewBox="0 0 1200 200" role="img" aria-labelledby="title desc">
<title id="title">Field results — peer-reviewed research produced with the co-scientist system</title>
<desc id="desc">NERV printed-document style publication record. FIG.04 of 5.</desc>
<defs><linearGradient id="bg" x1="0" y1="0" x2="0" y2="1"><stop offset="0" stop-color="#f4efe6"/><stop offset="1" stop-color="#ece5d8"/></linearGradient>
<pattern id="gridFine" width="8" height="8" patternUnits="userSpaceOnUse"><path d="M8 0H0V8" fill="none" stroke="#1a1b1e" stroke-opacity=".08"/></pattern>
<pattern id="gridBold" width="40" height="40" patternUnits="userSpaceOnUse"><path d="M40 0H0V40" fill="none" stroke="#1a1b1e" stroke-opacity=".12"/></pattern>
<style>text{font-family:ui-monospace,'SF Mono',SFMono-Regular,Menlo,Consolas,'Liberation Mono',monospace;}</style></defs>
<rect width="1200" height="200" fill="url(#bg)"/>
<rect width="1200" height="200" fill="url(#gridFine)"/>
<rect width="1200" height="200" fill="url(#gridBold)"/>
<rect x="2" y="2" width="1196" height="196" fill="none" stroke="#2a2b30" stroke-opacity=".6" stroke-width="2.5"/>
<rect x="10" y="10" width="1180" height="180" fill="none" stroke="#2a2b30" stroke-opacity=".28"/>
<path d="M22 36V22H36M1164 22H1178V36M1178 164V178H1164M36 178H22V164" fill="none" stroke="#d92720" stroke-opacity=".7" stroke-width="2"/>
<text x="54" y="50" font-size="13" font-weight="700" letter-spacing="3" fill="#1a1b1e">FIELD RESULTS</text>
<text x="1146" y="42" text-anchor="end" font-size="9.5" letter-spacing="2" fill="#6b6558">SHEET 04 / 05</text>
<line x1="54" y1="60" x2="248" y2="60" stroke="#d92720" stroke-width="2" stroke-opacity=".85"/>
<g id="row-r01">
<text x="54" y="92" font-size="10" font-weight="800" letter-spacing="1" fill="#d92720">[ R-01 ]</text>
<text x="130" y="92" font-size="13.5" font-weight="700" fill="#1a1b1e">Building an agentic AI-based co-researcher system:</text>
<text x="130" y="112" font-size="13.5" font-weight="700" fill="#1a1b1e">An autoethnographic reflection of an educational technology researcher</text>
<text x="130" y="136" font-size="10.5" fill="#6b6558">Lim, T. · The Journal of Educational Information and Media · 32(2), 701–728 · KCI · in Korean</text>
<text x="130" y="156" font-size="10.5" fill="#2a2b30">DOI 10.15833/KAFEIAM.32.2.701</text>
<g transform="rotate(-3 1012 88)"><rect x="938" y="70" width="148" height="36" fill="none" stroke="#d92720" stroke-width="2.5" stroke-opacity=".85" rx="3"/><text x="1012" y="92" text-anchor="middle" font-size="10" font-weight="800" letter-spacing="2" fill="#d92720" fill-opacity=".9">PUBLISHED 2026.04</text></g>
<text x="1146" y="156" text-anchor="end" font-size="11" font-weight="800" letter-spacing="2" fill="#d92720">READ THE PAPER →</text>
</g>
<g font-size="8"><rect x="808" y="164" width="382" height="24" fill="none" stroke="#2a2b30" stroke-opacity=".5"/><path d="M872 164v24M1020 164v24M1084 164v24" stroke="#2a2b30" stroke-opacity=".35"/><text x="840" y="179" text-anchor="middle" font-weight="800" letter-spacing="1" fill="#d92720">FIG.04</text><text x="946" y="179" text-anchor="middle" fill="#6b6558">DOC NO. NERV-TL-2026-04</text><text x="1052" y="179" text-anchor="middle" fill="#6b6558">REV 2026.07</text><text x="1137" y="179" text-anchor="middle" fill="#6b6558">MAGI CHECKED</text></g>
</svg>
