<svg xmlns="http://www.w3.org/2000/svg" width="1200" height="200" viewBox="0 0 1200 200" role="img" aria-labelledby="title desc">
<title id="title">Field results — peer-reviewed research produced with the co-scientist system</title>
<desc id="desc">MAGI terminal-style publication record. FIG.04 of 5.</desc>
<defs><linearGradient id="bg" x1="0" y1="0" x2="0" y2="1"><stop offset="0" stop-color="#050609"/><stop offset="1" stop-color="#0a0c12"/></linearGradient>
<radialGradient id="redGlow" cx=".5" cy="-.2" r="1"><stop offset="0" stop-color="#d92720" stop-opacity=".11"/><stop offset="1" stop-color="#d92720" stop-opacity="0"/></radialGradient>
<pattern id="gridFine" width="8" height="8" patternUnits="userSpaceOnUse"><path d="M8 0H0V8" fill="none" stroke="#f4efe6" stroke-opacity=".03"/></pattern>
<pattern id="gridBold" width="40" height="40" patternUnits="userSpaceOnUse"><path d="M40 0H0V40" fill="none" stroke="#f4efe6" stroke-opacity=".05"/></pattern>
<style>text{font-family:ui-monospace,'SF Mono',SFMono-Regular,Menlo,Consolas,'Liberation Mono',monospace;}.scan{animation:scan 16s linear infinite;}@keyframes scan{to{transform:translateX(1180px);}}@media (prefers-reduced-motion:reduce){.scan{animation:none;}}</style></defs>
<rect width="1200" height="200" fill="url(#bg)"/>
<rect width="1200" height="200" fill="url(#redGlow)"/>
<rect width="1200" height="200" fill="url(#gridFine)"/>
<rect width="1200" height="200" fill="url(#gridBold)"/>
<rect x="2" y="2" width="1196" height="196" fill="none" stroke="#d8d5ce" stroke-opacity=".6" stroke-width="2.5"/>
<rect x="10" y="10" width="1180" height="180" fill="none" stroke="#d8d5ce" stroke-opacity=".28"/>
<path d="M22 36V22H36M1164 22H1178V36M1178 164V178H1164M36 178H22V164" fill="none" stroke="#ff3b30" stroke-opacity=".7" stroke-width="2"/>
<rect class="scan" x="10" y="10" width="1" height="180" fill="#f4efe6" fill-opacity=".16"/>
<text x="54" y="50" font-size="13" font-weight="700" letter-spacing="3" fill="#f4efe6">FIELD RESULTS</text>
<text x="1146" y="42" text-anchor="end" font-size="9.5" letter-spacing="2" fill="#5c6069">SHEET 04 / 05</text>
<line x1="54" y1="60" x2="248" y2="60" stroke="#ff3b30" stroke-width="2" stroke-opacity=".85"/>
<g id="row-r01">
<text x="54" y="92" font-size="10" font-weight="800" letter-spacing="1" fill="#ff3b30">[ R-01 ]</text>
<text x="130" y="92" font-size="13.5" font-weight="700" fill="#f4efe6">Building an agentic AI-based co-researcher system:</text>
<text x="130" y="112" font-size="13.5" font-weight="700" fill="#f4efe6">An autoethnographic reflection of an educational technology researcher</text>
<text x="130" y="136" font-size="10.5" fill="#8d9098">Lim, T. · The Journal of Educational Information and Media · 32(2), 701–728 · KCI · in Korean</text>
<text x="130" y="156" font-size="10.5" fill="#d8d5ce">DOI 10.15833/KAFEIAM.32.2.701</text>
<path d="M946 76H1084V94L1078 100H940V82Z" fill="none" stroke="#780f10" stroke-width="1.5"/>
<text x="1012" y="92" text-anchor="middle" font-size="10" letter-spacing="2" fill="#d8d5ce">PUBLISHED 2026.04</text>
<text x="1146" y="156" text-anchor="end" font-size="11" font-weight="800" letter-spacing="2" fill="#ff3b30">READ THE PAPER →</text>
</g>
<g font-size="8"><rect x="808" y="164" width="382" height="24" fill="none" stroke="#d8d5ce" stroke-opacity=".5"/><path d="M872 164v24M1020 164v24M1084 164v24" stroke="#d8d5ce" stroke-opacity=".35"/><text x="840" y="179" text-anchor="middle" font-weight="800" letter-spacing="1" fill="#ff3b30">FIG.04</text><text x="946" y="179" text-anchor="middle" fill="#8d9098">DOC NO. NERV-TL-2026-04</text><text x="1052" y="179" text-anchor="middle" fill="#8d9098">REV 2026.07</text><text x="1137" y="179" text-anchor="middle" fill="#8d9098">MAGI CHECKED</text></g>
</svg>
