<svg xmlns="http://www.w3.org/2000/svg" width="1200" height="320" viewBox="0 0 1200 320" role="img" aria-labelledby="title desc">
<title id="title">Taehyeong Lim — Human × AI Co-Intelligence Systems</title>
<desc id="desc">NERV MAGI terminal-style hero panel in Evangelion HUD aesthetic, identical in light and dark mode.</desc>
<defs>
<linearGradient id="bg" x1="0" y1="0" x2="0" y2="1"><stop offset="0" stop-color="#050609"/><stop offset="1" stop-color="#0a0c12"/></linearGradient>
<radialGradient id="glow" cx=".5" cy="-.2" r="1"><stop offset="0" stop-color="#ff6a00" stop-opacity=".10"/><stop offset="1" stop-color="#ff6a00" stop-opacity="0"/></radialGradient>
<radialGradient id="vig" cx=".5" cy=".5" r=".75"><stop offset=".62" stop-color="#000" stop-opacity="0"/><stop offset="1" stop-color="#000" stop-opacity=".45"/></radialGradient>
<pattern id="hexes" width="48" height="27.713" patternUnits="userSpaceOnUse"><path d="M16.0 0.0L8.0 13.9L-8.0 13.9L-16.0 0.0L-8.0 -13.9L8.0 -13.9ZM64.0 0.0L56.0 13.9L40.0 13.9L32.0 0.0L40.0 -13.9L56.0 -13.9ZM16.0 27.7L8.0 41.6L-8.0 41.6L-16.0 27.7L-8.0 13.9L8.0 13.9ZM64.0 27.7L56.0 41.6L40.0 41.6L32.0 27.7L40.0 13.9L56.0 13.9ZM40.0 13.9L32.0 27.7L16.0 27.7L8.0 13.9L16.0 0.0L32.0 0.0Z" fill="none" stroke="#ff6a00" stroke-opacity=".07"/></pattern>
<pattern id="crt" width="4" height="3" patternUnits="userSpaceOnUse"><rect width="4" height="1" fill="#ffe2c4" fill-opacity=".04"/></pattern>
<pattern id="hz" width="12" height="12" patternUnits="userSpaceOnUse" patternTransform="rotate(45)"><rect width="6" height="12" fill="#ff6a00"/></pattern>
<style>text{font-family:ui-monospace,'SF Mono',SFMono-Regular,Menlo,Consolas,'Liberation Mono',monospace;}.scan{animation:scan 16s linear infinite;}@keyframes scan{to{transform:translateX(1180px);}}.blink{animation:blink 1.6s steps(1) infinite;}@keyframes blink{0%,49%{opacity:1;}50%,100%{opacity:.15;}}@media (prefers-reduced-motion:reduce){.scan,.blink{animation:none;}}</style></defs>
<rect width="1200" height="320" fill="url(#bg)"/>
<rect width="1200" height="320" fill="url(#glow)"/>
<rect width="1200" height="320" fill="url(#hexes)"/>
<rect width="1200" height="320" fill="url(#crt)"/>
<rect width="1200" height="320" fill="url(#vig)"/>
<rect x="2" y="2" width="1196" height="7" fill="url(#hz)" opacity=".75"/>
<line x1="2" y1="10" x2="1198" y2="10" stroke="#000" stroke-width="1.5"/>
<rect x="2" y="2" width="1196" height="316" fill="none" stroke="#ff6a00" stroke-opacity=".4" stroke-width="2"/>
<text x="60" y="42" font-size="10" letter-spacing="3" font-weight="700" fill="#ff9233">NERV // TAEHYEONG LIM, PH.D.</text>
<circle class="blink" cx="1040" cy="38" r="3" fill="#39d98a"/>
<text x="1176" y="42" text-anchor="end" font-size="10" letter-spacing="2" fill="#39d98a">SYSTEM NOMINAL</text>
<line x1="2" y1="58" x2="1198" y2="58" stroke="#8a3c00" stroke-opacity=".8"/>
<line x1="900" y1="58" x2="1198" y2="58" stroke="#ff2d2d" stroke-opacity=".25" stroke-width="6"/>
<line x1="900" y1="58" x2="1198" y2="58" stroke="#ff2d2d" stroke-width="2.5"/>
<!-- HUMAN × AI / CO-INTELLIGENCE SYSTEMS — Chakra Petch path-rendered -->
<path transform="translate(60,150)" d="M4.48 -44.800000000000004H11.904V-25.536H32.256V-44.800000000000004H39.68V0.0H32.256V-19.136H11.904V0.0H4.48Z M49.92 -7.488V-44.800000000000004H57.34400000000001V-9.984L60.992000000000004 -6.4H74.176L77.82400000000001 -9.984V-44.800000000000004H85.248V-7.488L77.76 0.0H57.408Z M95.48800000000001 -44.800000000000004H102.59200000000001L116.28800000000001 -13.952H116.41600000000001L130.11200000000002 -44.800000000000004H137.28V0.0H130.17600000000002V-29.952H130.048L118.784 -5.696H113.92000000000002L102.72000000000001 -29.952H102.59200000000001V0.0H95.48800000000001Z M159.93600000000004 -44.800000000000004H166.97600000000003L183.168 0.0H175.616L171.776 -10.624H155.07200000000003L151.23200000000003 0.0H143.68ZM170.04800000000003 -16.832 163.45600000000002 -35.776H163.32800000000003L156.86400000000003 -16.832Z M189.568 -44.800000000000004H196.35200000000003L217.47200000000004 -12.224H217.60000000000002V-44.800000000000004H224.704V0.0H217.92000000000002L196.8 -32.512H196.67200000000003V0.0H189.568Z" fill="#ffe2c4"/>
<path transform="translate(304,150)" d="M20.48 -16.896 29.056 -8.32 24.576 -3.84 16.0 -12.416 7.36 -3.84 2.88 -8.32 11.456 -16.896 2.88 -25.472 7.36 -29.952 16.0 -21.376 24.576 -29.952 29.056 -25.472Z" fill="#ff6a00"/>
<path transform="translate(350,150)" d="M16.896 -44.800000000000004H23.936L40.128 0.0H32.576L28.736 -10.624H12.032L8.192 0.0H0.64ZM27.008 -16.832 20.416 -35.776H20.288L13.824 -16.832Z M46.848 -44.800000000000004H54.272000000000006V0.0H46.848Z" fill="#ffe2c4"/>
<path transform="translate(60,196)" d="M2.04 -3.842V-19.958000000000002L5.882000000000001 -23.8H17.034000000000002L20.808 -20.026V-16.898H16.864V-18.632L15.062000000000001 -20.400000000000002H7.922000000000001L5.984 -18.496000000000002V-5.304L7.922000000000001 -3.4000000000000004H15.062000000000001L16.864 -5.168V-6.902H20.808V-3.7740000000000005L17.034000000000002 0.0H5.882000000000001Z M25.398 -3.842V-19.958000000000002L29.240000000000002 -23.8H41.004000000000005L44.846000000000004 -19.958000000000002V-3.842L41.004000000000005 0.0H29.240000000000002ZM38.964 -3.4000000000000004 40.902 -5.304V-18.496000000000002L38.964 -20.400000000000002H31.28L29.342 -18.496000000000002V-5.304L31.28 -3.4000000000000004Z M49.776 -10.370000000000001H61.06400000000001V-7.038H49.776Z M66.504 -23.8H70.44800000000001V0.0H66.504Z M76.738 -23.8H80.342L91.56200000000001 -6.494000000000001H91.63000000000001V-23.8H95.40400000000001V0.0H91.80000000000001L80.58 -17.272000000000002H80.512V0.0H76.738Z M106.964 -20.434H99.82400000000001V-23.8H118.048V-20.434H110.908V0.0H106.964Z M122.468 -23.8H139.06V-20.434H126.412V-13.634H138.074V-10.302000000000001H126.412V-3.366H139.06V0.0H122.468Z M144.16 -23.8H148.104V-3.366H160.072V0.0H144.16Z M164.322 -23.8H168.26600000000002V-3.366H180.234V0.0H164.322Z M184.65400000000002 -23.8H188.598V0.0H184.65400000000002Z M194.548 -3.842V-19.958000000000002L198.39000000000001 -23.8H209.746L213.52 -20.026V-16.898H209.57600000000002V-18.632L207.774 -20.400000000000002H200.43L198.49200000000002 -18.496000000000002V-5.304L200.43 -3.4000000000000004H207.774L209.678 -5.2700000000000005V-9.588000000000001H204.476V-12.988000000000001H213.52V-3.842L209.678 0.0H198.39000000000001Z M218.96 -23.8H235.55200000000002V-20.434H222.90400000000002V-13.634H234.566V-10.302000000000001H222.90400000000002V-3.366H235.55200000000002V0.0H218.96Z M240.65200000000002 -23.8H244.25600000000003L255.47600000000003 -6.494000000000001H255.544V-23.8H259.31800000000004V0.0H255.71400000000003L244.49400000000003 -17.272000000000002H244.42600000000002V0.0H240.65200000000002Z M265.098 -3.842V-19.958000000000002L268.94 -23.8H280.092L283.866 -20.026V-16.898H279.92199999999997V-18.632L278.12 -20.400000000000002H270.98L269.042 -18.496000000000002V-5.304L270.98 -3.4000000000000004H278.12L279.92199999999997 -5.168V-6.902H283.866V-3.7740000000000005L280.092 0.0H268.94Z M288.796 -23.8H305.388V-20.434H292.74V-13.634H304.402V-10.302000000000001H292.74V-3.366H305.388V0.0H288.796Z M320.28000000000003 -3.5020000000000002V-6.494000000000001H324.156V-4.692L325.44800000000004 -3.4000000000000004H332.86L334.22 -4.760000000000001V-9.146L332.894 -10.472000000000001H323.85L320.348 -13.940000000000001V-20.298000000000002L323.85 -23.8H334.322L337.824 -20.298000000000002V-17.272000000000002H333.94800000000004V-19.108L332.622 -20.400000000000002H325.55L324.22400000000005 -19.108V-15.164000000000001L325.55 -13.872000000000002H334.59400000000005L338.096 -10.370000000000001V-3.5700000000000003L334.526 0.0H323.78200000000004Z M349.724 -9.792000000000002 341.326 -23.8H345.644L351.66200000000003 -13.464H351.73L357.748 -23.8H362.06600000000003L353.668 -9.792000000000002V0.0H349.724Z M365.466 -3.5020000000000002V-6.494000000000001H369.342V-4.692L370.634 -3.4000000000000004H378.046L379.406 -4.760000000000001V-9.146L378.08 -10.472000000000001H369.036L365.534 -13.940000000000001V-20.298000000000002L369.036 -23.8H379.508L383.01 -20.298000000000002V-17.272000000000002H379.134V-19.108L377.808 -20.400000000000002H370.736L369.41 -19.108V-15.164000000000001L370.736 -13.872000000000002H379.78000000000003L383.282 -10.370000000000001V-3.5700000000000003L379.712 0.0H368.968Z M394.162 -20.434H387.022V-23.8H405.246V-20.434H398.106V0.0H394.162Z M409.666 -23.8H426.258V-20.434H413.61V-13.634H425.272V-10.302000000000001H413.61V-3.366H426.258V0.0H409.666Z M431.358 -23.8H435.132L442.408 -7.412000000000001H442.476L449.752 -23.8H453.56V0.0H449.786V-15.912H449.718L443.73400000000004 -3.0260000000000002H441.15000000000003L435.2 -15.912H435.132V0.0H431.358Z M459.17 -3.5020000000000002V-6.494000000000001H463.046V-4.692L464.338 -3.4000000000000004H471.75L473.11 -4.760000000000001V-9.146L471.784 -10.472000000000001H462.74L459.238 -13.940000000000001V-20.298000000000002L462.74 -23.8H473.212L476.714 -20.298000000000002V-17.272000000000002H472.838V-19.108L471.512 -20.400000000000002H464.44L463.11400000000003 -19.108V-15.164000000000001L464.44 -13.872000000000002H473.48400000000004L476.986 -10.370000000000001V-3.5700000000000003L473.416 0.0H462.672Z" fill="#ffe2c4" fill-opacity=".95"/>
<text x="60" y="228" font-size="13" letter-spacing="6" fill="#d9a877" font-family="'Apple SD Gothic Neo','Malgun Gothic','Noto Sans KR',sans-serif">공동지능 시스템</text>
<text x="60" y="254" font-size="12" fill="#d9a877">Building multi-agent systems that think, verify, and work with humans.</text>
<path transform="translate(790,222)" d="M73.3 -9.1C73.3 -19.400000000000002 62.0 -26.1 42.400000000000006 -26.1C22.700000000000003 -26.1 11.3 -19.400000000000002 11.3 -9.1C11.3 1.2000000000000002 22.700000000000003 7.9 42.400000000000006 7.9C62.0 7.9 73.3 1.2000000000000002 73.3 -9.1ZM83.5 -32.9V-42.2H45.2V-57.7H33.5V-42.2H3.0V-32.9ZM73.10000000000001 -78.0H12.200000000000001V-68.8H61.400000000000006C61.400000000000006 -59.400000000000006 60.5 -54.1 59.0 -48.1C62.800000000000004 -47.7 66.60000000000001 -47.1 70.3 -46.6C71.9 -53.900000000000006 73.10000000000001 -61.400000000000006 73.10000000000001 -78.0ZM61.400000000000006 -9.0C61.400000000000006 -4.0 54.0 -1.4000000000000001 42.400000000000006 -1.4000000000000001C30.700000000000003 -1.4000000000000001 23.400000000000002 -4.0 23.400000000000002 -9.0C23.400000000000002 -14.200000000000001 30.700000000000003 -16.7 42.400000000000006 -16.7C54.0 -16.7 61.400000000000006 -14.200000000000001 61.400000000000006 -9.0Z M165.60000000000002 -48.1V-57.400000000000006H116.9V-69.8H164.9V-79.2H105.2V-48.1H128.7V-39.5H94.5V-30.200000000000003H175.0V-39.5H140.5V-48.1ZM165.8 -8.700000000000001C165.8 -18.8 154.5 -25.3 134.7 -25.3C115.1 -25.3 103.8 -18.8 103.8 -8.700000000000001C103.8 1.6 115.1 8.0 134.8 8.0C154.5 8.0 165.8 1.6 165.8 -8.700000000000001ZM153.8 -8.6C153.8 -4.0 146.3 -1.3 134.7 -1.3C123.2 -1.3 115.8 -4.0 115.8 -8.6C115.8 -13.200000000000001 123.2 -16.0 134.7 -16.0C146.3 -16.0 153.8 -13.200000000000001 153.8 -8.6Z M241.7 -22.400000000000002C228.3 -29.3 219.8 -41.7 219.8 -60.5V-62.800000000000004H237.0V-72.10000000000001H189.7V-62.800000000000004H207.5V-60.400000000000006C207.5 -41.7 200.2 -27.900000000000002 185.2 -19.900000000000002L192.2 -11.200000000000001C202.6 -16.3 211.6 -28.200000000000003 213.7 -37.2C216.4 -28.6 227.3 -17.3 235.2 -13.3ZM259.7 7.9V-81.2H248.0V7.9Z M358.0 -32.1V-41.400000000000006H277.5V-32.1ZM348.1 -49.1V-58.300000000000004H300.0V-79.2H288.3V-49.1ZM348.8 -9.200000000000001C348.8 -19.5 337.5 -26.1 317.7 -26.1C298.1 -26.1 286.8 -19.5 286.8 -9.200000000000001C286.8 0.9 298.1 7.5 317.8 7.5C337.5 7.5 348.8 0.9 348.8 -9.200000000000001ZM336.8 -9.1C336.8 -4.6000000000000005 329.3 -1.8 317.7 -1.8C306.2 -1.8 298.8 -4.6000000000000005 298.8 -9.1C298.8 -13.8 306.2 -16.7 317.7 -16.7C329.3 -16.7 336.8 -13.8 336.8 -9.1Z" fill="#ff6a00" fill-opacity=".07"/>
<g stroke="#ff6a00" stroke-opacity=".5" fill="none"><path d="M940 92H970M905 112L935 192M1005 112L975 192"/></g>
<path d="M808 72H932L940 80V104L932 112H808L800 104V80Z" fill="none" stroke="#ff6a00" stroke-opacity=".22" stroke-width="4.5"/><path d="M808 72H932L940 80V104L932 112H808L800 104V80Z" fill="#10131c" fill-opacity=".85" stroke="#ff6a00" stroke-opacity=".85" stroke-width="1.5"/>
<text x="870" y="97" text-anchor="middle" font-size="11" font-weight="800" letter-spacing="1" fill="#ffb000">MELCHIOR · 1</text>
<path d="M978 72H1102L1110 80V104L1102 112H978L970 104V80Z" fill="none" stroke="#ff6a00" stroke-opacity=".22" stroke-width="4.5"/><path d="M978 72H1102L1110 80V104L1102 112H978L970 104V80Z" fill="#10131c" fill-opacity=".85" stroke="#ff6a00" stroke-opacity=".85" stroke-width="1.5"/>
<text x="1040" y="97" text-anchor="middle" font-size="11" font-weight="800" letter-spacing="1" fill="#ffb000">BALTHASAR · 2</text>
<path d="M893 192H1017L1025 200V224L1017 232H893L885 224V200Z" fill="none" stroke="#ff6a00" stroke-opacity=".22" stroke-width="4.5"/><path d="M893 192H1017L1025 200V224L1017 232H893L885 224V200Z" fill="#10131c" fill-opacity=".85" stroke="#ff6a00" stroke-opacity=".85" stroke-width="1.5"/>
<text x="955" y="217" text-anchor="middle" font-size="11" font-weight="800" letter-spacing="1" fill="#ffb000">CASPER · 3</text>
<path d="M972.0 148.0L963.5 162.7L946.5 162.7L938.0 148.0L946.5 133.3L963.5 133.3Z" fill="#10131c" fill-opacity=".9" stroke="#ffb000" stroke-width="1.5"/>
<text x="955" y="152" text-anchor="middle" font-size="10.5" font-weight="800" fill="#ffb000">3/3</text>
<text x="955" y="174" text-anchor="middle" font-size="7.5" letter-spacing="2" fill="#9a7048">CONSENSUS</text>
<text x="955" y="258" text-anchor="middle" font-size="9.5" letter-spacing="2" fill="#9a7048" font-family="'Apple SD Gothic Neo','Malgun Gothic','Noto Sans KR',sans-serif">MAGI CROSS-VALIDATION · 합의제</text>
<rect x="10" y="282" width="1180" height="28" fill="#0a0c12" stroke="#ff6a00" stroke-opacity=".35"/>
<rect x="10" y="282" width="4" height="28" fill="#ff2d2d" opacity=".85"/>
<text x="32" y="300" font-size="10" letter-spacing="1" fill="#d9a877" font-family="'Apple SD Gothic Neo','Malgun Gothic','Noto Sans KR',sans-serif"><tspan class="blink" fill="#ff9233">&gt;</tspan> 45 AGENTS ACTIVE · MAGI CONSENSUS 3/3 · AI CO-SCIENTIST · MULTI-AGENT SYSTEMS · HUMAN-IN-THE-LOOP · <tspan fill="#ff2d2d">경고 HUMAN OVERRIDE ARMED</tspan></text>
<rect class="scan" x="10" y="10" width="1" height="300" fill="#ffe2c4" fill-opacity=".14"/>
</svg>
