<svg xmlns="http://www.w3.org/2000/svg" width="1200" height="320" viewBox="0 0 1200 320" role="img" aria-labelledby="title desc">
  <title id="title">Taehyeong Lim — Human × AI Co-Intelligence Systems</title>
  <desc id="desc">Blueprint-style dark banner. FIG.01 of a four-sheet drawing set for AI co-scientist builder Taehyeong Lim.</desc>
  <defs>
    <linearGradient id="bg" x1="0" y1="0" x2="1" y2="1">
      <stop offset="0" stop-color="#0d2a55"/><stop offset="1" stop-color="#123a75"/>
    </linearGradient>
    <pattern id="gridFine" width="8" height="8" patternUnits="userSpaceOnUse">
      <path d="M8 0H0V8" fill="none" stroke="#ffffff" stroke-opacity=".04"/>
    </pattern>
    <pattern id="gridBold" width="40" height="40" patternUnits="userSpaceOnUse">
      <path d="M40 0H0V40" fill="none" stroke="#ffffff" stroke-opacity=".07"/>
    </pattern>
    <style>
      text { font-family: ui-monospace,'SF Mono',SFMono-Regular,Menlo,Consolas,'Liberation Mono',monospace; }
      .flow { stroke-dasharray: 5 7; animation: flow 12s linear infinite; }
      .scan { animation: scan 16s linear infinite; }
      .blink { animation: blink 1.6s steps(1) infinite; }
      @keyframes flow { to { stroke-dashoffset: -96; } }
      @keyframes scan { to { transform: translateX(1180px); } }
      @keyframes blink { 0%, 49% { opacity: 1; } 50%, 100% { opacity: .12; } }
      @media (prefers-reduced-motion: reduce) { .flow, .scan, .blink { animation: none; } }
    </style>
  </defs>
  <rect width="1200" height="320" fill="url(#bg)"/>
  <rect width="1200" height="320" fill="url(#gridFine)"/>
  <rect width="1200" height="320" fill="url(#gridBold)"/>
  <rect x="2" y="2" width="1196" height="316" fill="none" stroke="#dbeafe" stroke-opacity=".6" stroke-width="2.5"/>
  <rect x="10" y="10" width="1180" height="300" fill="none" stroke="#dbeafe" stroke-opacity=".28"/>
  <g stroke="#dbeafe" stroke-opacity=".3" stroke-width="6" stroke-dasharray="1 39">
    <line x1="10" y1="13" x2="1190" y2="13"/>
    <line x1="10" y1="307" x2="1190" y2="307"/>
    <line x1="13" y1="10" x2="13" y2="310"/>
    <line x1="1187" y1="10" x2="1187" y2="310"/>
  </g>
  <g stroke="#dbeafe" stroke-opacity=".45" fill="none">
    <path d="M30 24v12M24 30h12"/><path d="M1170 24v12M1164 30h12"/>
    <path d="M30 284v12M24 290h12"/><path d="M1170 284v12M1164 290h12"/>
  </g>
  <rect class="scan" x="10" y="10" width="1" height="300" fill="#dbeafe" fill-opacity=".16"/>
  <text x="1170" y="42" text-anchor="end" font-size="9.5" letter-spacing="2" fill="#8fb0dd">SHEET 01 / 04</text>
  <text x="68" y="84" font-size="15" font-weight="700" letter-spacing="5" fill="#b9d0f0">TAEHYEONG LIM, PH.D.</text>
  <text x="66" y="152" font-size="50" font-weight="800" letter-spacing="1" fill="#eaf2ff">HUMAN <tspan fill="#f87171">×</tspan> AI</text>
  <text x="68" y="198" font-size="28" font-weight="700" letter-spacing="3" fill="#eaf2ff">CO-INTELLIGENCE SYSTEMS</text>
  <path d="M68 212h438M68 206v12M506 206v12" fill="none" stroke="#dbeafe" stroke-opacity=".5"/>
  <text x="68" y="240" font-size="16" fill="#b9d0f0">Building multi-agent systems that think, verify, and work with humans.</text>
  <g font-size="11" font-weight="700" letter-spacing="1" fill="#b9d0f0">
    <rect x="68" y="264" width="140" height="30" fill="#dbeafe" fill-opacity=".05" stroke="#dbeafe" stroke-opacity=".55"/>
    <text x="138" y="283" text-anchor="middle">AI CO-SCIENTIST</text>
    <rect x="218" y="264" width="178" height="30" fill="#dbeafe" fill-opacity=".05" stroke="#dbeafe" stroke-opacity=".55"/>
    <text x="307" y="283" text-anchor="middle">MULTI-AGENT SYSTEMS</text>
    <rect x="406" y="264" width="164" height="30" fill="#dbeafe" fill-opacity=".05" stroke="#dbeafe" stroke-opacity=".55"/>
    <text x="488" y="283" text-anchor="middle">HUMAN-IN-THE-LOOP</text>
  </g>
  <g fill="none" stroke="#dbeafe">
    <g stroke-opacity=".4" stroke-dasharray="12 4 3 4">
      <path d="M800 140h116M858 82v116"/>
      <path d="M1004 140h116M1062 82v116"/>
    </g>
    <g stroke-opacity=".55" stroke-dasharray="2 5">
      <path d="M858 58v24M1062 58v24"/>
    </g>
    <circle cx="858" cy="53" r="4.5" stroke-opacity=".7"/>
    <circle cx="1062" cy="53" r="4.5" stroke-opacity=".7"/>
    <circle cx="858" cy="140" r="44" stroke-width="2"/>
    <circle cx="1062" cy="140" r="44" stroke-width="2"/>
    <g class="flow" stroke-opacity=".85" stroke-width="1.5">
      <path d="M902 140h45M973 140h45"/>
    </g>
    <circle cx="960" cy="140" r="13" stroke="#f87171" stroke-width="2"/>
    <g stroke-opacity=".6">
      <path d="M827 109l-20 -20h-54"/>
      <path d="M1093 109l20 -20h54"/>
    </g>
    <g stroke-opacity=".45">
      <path d="M858 188v50M1062 188v50"/>
    </g>
    <g stroke-opacity=".8">
      <path d="M858 232h204"/>
      <path d="M866 228l-8 4 8 4M1054 228l8 4-8 4"/>
    </g>
  </g>
  <text x="749" y="93" text-anchor="end" font-size="10" letter-spacing="1.5" fill="#8fb0dd">HUMAN INTENT</text>
  <text x="1117" y="93" font-size="10" letter-spacing="1.5" fill="#8fb0dd">AI AGENCY</text>
  <text x="858" y="145" text-anchor="middle" font-size="11.5" font-weight="800" letter-spacing="1.5" fill="#eaf2ff">HUMAN</text>
  <text x="1062" y="145" text-anchor="middle" font-size="13" font-weight="800" letter-spacing="2" fill="#eaf2ff">AI</text>
  <text x="960" y="145" text-anchor="middle" font-size="15" font-weight="800" fill="#f87171">×</text>
  <circle class="blink" cx="843" cy="223" r="2.5" fill="#f87171"/>
  <text x="960" y="226" text-anchor="middle" font-size="9.5" letter-spacing="2" fill="#8fb0dd">CO-INTELLIGENCE LATTICE / 01</text>
  <g font-size="8.5">
    <rect x="884" y="284" width="306" height="24" fill="none" stroke="#dbeafe" stroke-opacity=".5"/>
    <path d="M946 284v24M1086 284v24M1144 284v24" stroke="#dbeafe" stroke-opacity=".35"/>
    <text x="915" y="299" text-anchor="middle" font-weight="800" letter-spacing="1" fill="#f87171">FIG.01</text>
    <text x="1016" y="299" text-anchor="middle" fill="#b9d0f0">DWG NO. TL-2026-01</text>
    <text x="1115" y="299" text-anchor="middle" fill="#b9d0f0">REV 2026.07</text>
    <text x="1167" y="299" text-anchor="middle" fill="#b9d0f0">SCALE 1:1</text>
  </g>
</svg>