<svg xmlns="http://www.w3.org/2000/svg" width="1200" height="320" viewBox="0 0 1200 320" role="img" aria-labelledby="title desc">
<title id="title">Taehyeong Lim — Human × AI Co-Intelligence Systems</title>
<desc id="desc">NERV MAGI terminal-style hero panel in Evangelion HUD aesthetic, identical in light and dark mode.</desc>
<defs>
<linearGradient id="bg" x1="0" y1="0" x2="0" y2="1"><stop offset="0" stop-color="#050609"/><stop offset="1" stop-color="#0a0c12"/></linearGradient>
<radialGradient id="glow" cx=".5" cy="-.2" r="1"><stop offset="0" stop-color="#ff6a00" stop-opacity=".10"/><stop offset="1" stop-color="#ff6a00" stop-opacity="0"/></radialGradient>
<radialGradient id="vig" cx=".5" cy=".5" r=".75"><stop offset=".62" stop-color="#000" stop-opacity="0"/><stop offset="1" stop-color="#000" stop-opacity=".45"/></radialGradient>
<pattern id="hexes" width="48" height="27.713" patternUnits="userSpaceOnUse"><path d="M16.0 0.0L8.0 13.9L-8.0 13.9L-16.0 0.0L-8.0 -13.9L8.0 -13.9ZM64.0 0.0L56.0 13.9L40.0 13.9L32.0 0.0L40.0 -13.9L56.0 -13.9ZM16.0 27.7L8.0 41.6L-8.0 41.6L-16.0 27.7L-8.0 13.9L8.0 13.9ZM64.0 27.7L56.0 41.6L40.0 41.6L32.0 27.7L40.0 13.9L56.0 13.9ZM40.0 13.9L32.0 27.7L16.0 27.7L8.0 13.9L16.0 0.0L32.0 0.0Z" fill="none" stroke="#ff6a00" stroke-opacity=".07"/></pattern>
<pattern id="crt" width="4" height="3" patternUnits="userSpaceOnUse"><rect width="4" height="1" fill="#ffe2c4" fill-opacity=".04"/></pattern>
<pattern id="hz" width="12" height="12" patternUnits="userSpaceOnUse" patternTransform="rotate(45)"><rect width="6" height="12" fill="#ff6a00"/></pattern>
<style>text{font-family:ui-monospace,'SF Mono',SFMono-Regular,Menlo,Consolas,'Liberation Mono',monospace;}.scan{animation:scan 16s linear infinite;}@keyframes scan{to{transform:translateX(1180px);}}.blink{animation:blink 1.6s steps(1) infinite;}@keyframes blink{0%,49%{opacity:1;}50%,100%{opacity:.15;}}@media (prefers-reduced-motion:reduce){.scan,.blink{animation:none;}}</style></defs>
<rect width="1200" height="320" fill="url(#bg)"/>
<rect width="1200" height="320" fill="url(#glow)"/>
<rect width="1200" height="320" fill="url(#hexes)"/>
<rect width="1200" height="320" fill="url(#crt)"/>
<rect width="1200" height="320" fill="url(#vig)"/>
<rect x="2" y="2" width="1196" height="7" fill="url(#hz)" opacity=".75"/>
<line x1="2" y1="10" x2="1198" y2="10" stroke="#000" stroke-width="1.5"/>
<rect x="2" y="2" width="1196" height="316" fill="none" stroke="#ff6a00" stroke-opacity=".4" stroke-width="2"/>
<text x="60" y="42" font-size="10" letter-spacing="3" font-weight="700" fill="#ff9233">NERV // TAEHYEONG LIM, PH.D.</text>
<circle class="blink" cx="1040" cy="38" r="3" fill="#39d98a"/>
<text x="1176" y="42" text-anchor="end" font-size="10" letter-spacing="2" fill="#39d98a">SYSTEM NOMINAL</text>
<line x1="2" y1="58" x2="1198" y2="58" stroke="#8a3c00" stroke-opacity=".8"/>
<line x1="900" y1="58" x2="1198" y2="58" stroke="#ff2d2d" stroke-opacity=".25" stroke-width="6"/>
<line x1="900" y1="58" x2="1198" y2="58" stroke="#ff2d2d" stroke-width="2.5"/>
<!-- HUMAN × AI / CO-INTELLIGENCE SYSTEMS — Chakra Petch path-rendered -->
<path transform="translate(60,150)" d="M4.48 -44.800000000000004H11.904V-25.536H32.256V-44.800000000000004H39.68V0.0H32.256V-19.136H11.904V0.0H4.48Z M49.92 -7.488V-44.800000000000004H57.34400000000001V-9.984L60.992000000000004 -6.4H74.176L77.82400000000001 -9.984V-44.800000000000004H85.248V-7.488L77.76 0.0H57.408Z M95.48800000000001 -44.800000000000004H102.59200000000001L116.28800000000001 -13.952H116.41600000000001L130.11200000000002 -44.800000000000004H137.28V0.0H130.17600000000002V-29.952H130.048L118.784 -5.696H113.92000000000002L102.72000000000001 -29.952H102.59200000000001V0.0H95.48800000000001Z M159.93600000000004 -44.800000000000004H166.97600000000003L183.168 0.0H175.616L171.776 -10.624H155.07200000000003L151.23200000000003 0.0H143.68ZM170.04800000000003 -16.832 163.45600000000002 -35.776H163.32800000000003L156.86400000000003 -16.832Z M189.568 -44.800000000000004H196.35200000000003L217.47200000000004 -12.224H217.60000000000002V-44.800000000000004H224.704V0.0H217.92000000000002L196.8 -32.512H196.67200000000003V0.0H189.568Z" fill="#ffe2c4"/>
<path transform="translate(304,150)" d="M20.48 -16.896 29.056 -8.32 24.576 -3.84 16.0 -12.416 7.36 -3.84 2.88 -8.32 11.456 -16.896 2.88 -25.472 7.36 -29.952 16.0 -21.376 24.576 -29.952 29.056 -25.472Z" fill="#ff6a00"/>
<path transform="translate(350,150)" d="M16.896 -44.800000000000004H23.936L40.128 0.0H32.576L28.736 -10.624H12.032L8.192 0.0H0.64ZM27.008 -16.832 20.416 -35.776H20.288L13.824 -16.832Z M46.848 -44.800000000000004H54.272000000000006V0.0H46.848Z" fill="#ffe2c4"/>
<path transform="translate(60,196)" d="M2.04 -3.842V-19.958000000000002L5.882000000000001 -23.8H17.034000000000002L20.808 -20.026V-16.898H16.864V-18.632L15.062000000000001 -20.400000000000002H7.922000000000001L5.984 -18.496000000000002V-5.304L7.922000000000001 -3.4000000000000004H15.062000000000001L16.864 -5.168V-6.902H20.808V-3.7740000000000005L17.034000000000002 0.0H5.882000000000001Z M25.398 -3.842V-19.958000000000002L29.240000000000002 -23.8H41.004000000000005L44.846000000000004 -19.958000000000002V-3.842L41.004000000000005 0.0H29.240000000000002ZM38.964 -3.4000000000000004 40.902 -5.304V-18.496000000000002L38.964 -20.400000000000002H31.28L29.342 -18.496000000000002V-5.304L31.28 -3.4000000000000004Z M49.776 -10.370000000000001H61.06400000000001V-7.038H49.776Z M66.504 -23.8H70.44800000000001V0.0H66.504Z M76.738 -23.8H80.342L91.56200000000001 -6.494000000000001H91.63000000000001V-23.8H95.40400000000001V0.0H91.80000000000001L80.58 -17.272000000000002H80.512V0.0H76.738Z M106.964 -20.434H99.82400000000001V-23.8H118.048V-20.434H110.908V0.0H106.964Z M122.468 -23.8H139.06V-20.434H126.412V-13.634H138.074V-10.302000000000001H126.412V-3.366H139.06V0.0H122.468Z M144.16 -23.8H148.104V-3.366H160.072V0.0H144.16Z M164.322 -23.8H168.26600000000002V-3.366H180.234V0.0H164.322Z M184.65400000000002 -23.8H188.598V0.0H184.65400000000002Z M194.548 -3.842V-19.958000000000002L198.39000000000001 -23.8H209.746L213.52 -20.026V-16.898H209.57600000000002V-18.632L207.774 -20.400000000000002H200.43L198.49200000000002 -18.496000000000002V-5.304L200.43 -3.4000000000000004H207.774L209.678 -5.2700000000000005V-9.588000000000001H204.476V-12.988000000000001H213.52V-3.842L209.678 0.0H198.39000000000001Z M218.96 -23.8H235.55200000000002V-20.434H222.90400000000002V-13.634H234.566V-10.302000000000001H222.90400000000002V-3.366H235.55200000000002V0.0H218.96Z M240.65200000000002 -23.8H244.25600000000003L255.47600000000003 -6.494000000000001H255.544V-23.8H259.31800000000004V0.0H255.71400000000003L244.49400000000003 -17.272000000000002H244.42600000000002V0.0H240.65200000000002Z M265.098 -3.842V-19.958000000000002L268.94 -23.8H280.092L283.866 -20.026V-16.898H279.92199999999997V-18.632L278.12 -20.400000000000002H270.98L269.042 -18.496000000000002V-5.304L270.98 -3.4000000000000004H278.12L279.92199999999997 -5.168V-6.902H283.866V-3.7740000000000005L280.092 0.0H268.94Z M288.796 -23.8H305.388V-20.434H292.74V-13.634H304.402V-10.302000000000001H292.74V-3.366H305.388V0.0H288.796Z M320.28000000000003 -3.5020000000000002V-6.494000000000001H324.156V-4.692L325.44800000000004 -3.4000000000000004H332.86L334.22 -4.760000000000001V-9.146L332.894 -10.472000000000001H323.85L320.348 -13.940000000000001V-20.298000000000002L323.85 -23.8H334.322L337.824 -20.298000000000002V-17.272000000000002H333.94800000000004V-19.108L332.622 -20.400000000000002H325.55L324.22400000000005 -19.108V-15.164000000000001L325.55 -13.872000000000002H334.59400000000005L338.096 -10.370000000000001V-3.5700000000000003L334.526 0.0H323.78200000000004Z M349.724 -9.792000000000002 341.326 -23.8H345.644L351.66200000000003 -13.464H351.73L357.748 -23.8H362.06600000000003L353.668 -9.792000000000002V0.0H349.724Z M365.466 -3.5020000000000002V-6.494000000000001H369.342V-4.692L370.634 -3.4000000000000004H378.046L379.406 -4.760000000000001V-9.146L378.08 -10.472000000000001H369.036L365.534 -13.940000000000001V-20.298000000000002L369.036 -23.8H379.508L383.01 -20.298000000000002V-17.272000000000002H379.134V-19.108L377.808 -20.400000000000002H370.736L369.41 -19.108V-15.164000000000001L370.736 -13.872000000000002H379.78000000000003L383.282 -10.370000000000001V-3.5700000000000003L379.712 0.0H368.968Z M394.162 -20.434H387.022V-23.8H405.246V-20.434H398.106V0.0H394.162Z M409.666 -23.8H426.258V-20.434H413.61V-13.634H425.272V-10.302000000000001H413.61V-3.366H426.258V0.0H409.666Z M431.358 -23.8H435.132L442.408 -7.412000000000001H442.476L449.752 -23.8H453.56V0.0H449.786V-15.912H449.718L443.73400000000004 -3.0260000000000002H441.15000000000003L435.2 -15.912H435.132V0.0H431.358Z M459.17 -3.5020000000000002V-6.494000000000001H463.046V-4.692L464.338 -3.4000000000000004H471.75L473.11 -4.760000000000001V-9.146L471.784 -10.472000000000001H462.74L459.238 -13.940000000000001V-20.298000000000002L462.74 -23.8H473.212L476.714 -20.298000000000002V-17.272000000000002H472.838V-19.108L471.512 -20.400000000000002H464.44L463.11400000000003 -19.108V-15.164000000000001L464.44 -13.872000000000002H473.48400000000004L476.986 -10.370000000000001V-3.5700000000000003L473.416 0.0H462.672Z" fill="#ffe2c4" fill-opacity=".95"/>
<text x="60" y="228" font-size="13" letter-spacing="6" fill="#d9a877" font-family="'Hiragino Kaku Gothic ProN','Yu Gothic','Noto Sans JP',sans-serif">協働知能システム</text>
<text x="60" y="254" font-size="12" fill="#d9a877">Building multi-agent systems that think, verify, and work with humans.</text>
<path transform="translate(800,238)" d="M32.4 -86.85V-111.75C32.4 -117.75 32.699999999999996 -120.89999999999999 33.449999999999996 -124.94999999999999H21.9C22.65 -120.89999999999999 22.95 -117.14999999999999 22.95 -111.6V-86.85H19.05C12.9 -86.85 10.049999999999999 -87.0 6.6 -87.6V-77.7C10.65 -78.14999999999999 13.65 -78.3 19.05 -78.3H22.95V-5.25C22.95 1.5 22.65 6.45 21.9 11.1H33.449999999999996C32.699999999999996 5.55 32.4 1.05 32.4 -5.1V-78.3H34.5C39.449999999999996 -78.3 41.55 -78.14999999999999 45.15 -77.7V-87.6C42.3 -87.0 39.9 -86.85 34.35 -86.85ZM122.25 -102.45C121.64999999999999 -94.2 120.89999999999999 -89.25 119.69999999999999 -85.64999999999999C118.64999999999999 -82.64999999999999 117.0 -81.6 112.95 -81.6C106.64999999999999 -81.6 100.2 -82.2 94.64999999999999 -83.39999999999999C95.85 -79.8 96.3 -77.55 96.6 -73.95C102.3 -73.5 107.39999999999999 -73.2 111.6 -73.2C116.39999999999999 -73.2 119.39999999999999 -73.5 121.19999999999999 -74.1C124.19999999999999 -75.14999999999999 126.44999999999999 -77.25 127.64999999999999 -79.95C129.45 -84.14999999999999 130.95 -93.14999999999999 132.0 -105.0C132.15 -108.14999999999999 132.29999999999998 -108.6 132.6 -111.3C129.15 -110.85 125.69999999999999 -110.7 120.75 -110.7H91.95C92.55 -113.39999999999999 92.85 -114.75 93.14999999999999 -115.94999999999999C94.2 -121.64999999999999 94.5 -122.85 95.1 -124.94999999999999L84.14999999999999 -125.55C84.3 -124.35 84.3 -123.89999999999999 84.3 -123.0C84.3 -119.55 83.55 -114.45 82.64999999999999 -110.7H65.1C58.349999999999994 -110.7 54.0 -110.85 50.1 -111.45V-101.7C53.85 -102.3 57.9 -102.45 64.64999999999999 -102.45H79.8C74.1 -90.14999999999999 64.8 -82.8 46.949999999999996 -76.8C49.5 -74.25 51.15 -72.0 52.8 -68.7C72.6 -77.1 83.55 -87.3 89.25 -102.45ZM78.75 -44.699999999999996C78.45 -27.45 76.95 -12.75 75.0 -5.1C74.25 -2.25 72.75 -1.2 69.0 -1.2C65.39999999999999 -1.2 62.099999999999994 -1.65 57.75 -2.55C59.099999999999994 1.2 59.4 2.85 59.699999999999996 6.8999999999999995C62.699999999999996 7.05 64.5 7.199999999999999 66.89999999999999 7.199999999999999C80.25 7.199999999999999 82.5 5.1 84.75 -9.15C86.25 -18.9 87.75 -35.55 87.75 -45.15C87.89999999999999 -49.05 87.89999999999999 -50.699999999999996 88.2 -53.55C84.75 -53.1 81.45 -52.949999999999996 75.6 -52.949999999999996H66.3C66.45 -54.9 66.45 -56.1 66.6 -58.65C66.75 -62.4 67.05 -65.7 67.5 -68.39999999999999H57.599999999999994C57.9 -66.0 58.05 -64.5 58.05 -61.199999999999996C58.05 -58.5 58.05 -57.15 57.75 -52.949999999999996H50.4C45.75 -52.949999999999996 43.5 -53.1 41.1 -53.699999999999996V-44.1C43.949999999999996 -44.55 45.9 -44.699999999999996 49.949999999999996 -44.699999999999996H57.0C54.449999999999996 -22.95 48.449999999999996 -9.15 36.6 1.7999999999999998C39.449999999999996 4.5 40.35 5.55 43.05 9.6C50.25 1.5 54.3 -4.6499999999999995 58.199999999999996 -13.95C61.949999999999996 -23.25 63.9 -30.9 65.55 -44.699999999999996ZM131.25 -44.699999999999996C130.79999999999998 -25.65 129.45 -12.15 127.19999999999999 -4.5C126.44999999999999 -1.95 125.1 -1.2 121.05 -1.2C116.85 -1.2 113.39999999999999 -1.65 107.7 -2.6999999999999997C109.05 1.2 109.35 2.55 109.64999999999999 6.75C112.8 7.05 115.19999999999999 7.199999999999999 119.69999999999999 7.199999999999999C122.1 7.199999999999999 124.8 6.8999999999999995 127.5 6.45C131.1 5.85 133.5 3.5999999999999996 135.0 0.0C137.4 -6.45 139.2 -22.2 140.25 -45.9C140.4 -49.949999999999996 140.4 -49.949999999999996 140.7 -53.55C136.95 -53.1 133.79999999999998 -52.949999999999996 128.25 -52.949999999999996H115.8C115.94999999999999 -55.35 115.94999999999999 -55.65 116.1 -56.4C116.55 -64.64999999999999 116.69999999999999 -66.0 117.14999999999999 -68.55H107.39999999999999C107.55 -66.3 107.7 -64.95 107.7 -62.4C107.7 -59.699999999999996 107.55 -55.35 107.25 -52.949999999999996H102.89999999999999C98.1 -52.949999999999996 95.85 -53.1 93.3 -53.699999999999996V-44.1C96.14999999999999 -44.55 98.1 -44.699999999999996 102.45 -44.699999999999996H106.5C103.8 -22.8 97.2 -7.6499999999999995 85.95 2.25C88.8 4.5 90.6 6.45 92.55 9.45C98.85 2.55 102.0 -1.7999999999999998 105.6 -9.45C110.39999999999999 -19.65 113.1 -29.549999999999997 115.05 -44.699999999999996Z M291.0 -82.64999999999999C290.54999999999995 -45.6 289.79999999999995 -28.95 287.7 -15.149999999999999C285.9 -1.95 284.7 0.3 279.75 0.3C276.45 0.3 272.25 -0.3 266.7 -1.3499999999999999C267.6 1.65 268.05 4.05 268.5 8.25C274.65 9.0 277.95 9.15 280.95 9.15C289.79999999999995 9.15 292.5 6.45 294.75 -4.35C297.29999999999995 -15.6 298.95 -38.25 299.54999999999995 -71.1C299.85 -88.5 299.85 -88.5 300.29999999999995 -91.5C297.6 -91.2 294.6 -91.05 289.04999999999995 -91.05H278.7C278.85 -97.2 278.85 -103.05 278.85 -108.89999999999999C279.0 -116.25 279.15 -119.39999999999999 279.75 -123.14999999999999H269.25C270.0 -118.5 270.15 -115.64999999999999 270.15 -103.2C270.15 -98.25 270.15 -95.7 270.0 -91.05H267.3C262.65 -91.05 260.4 -91.2 257.1 -91.8V-81.89999999999999C260.7 -82.5 262.8 -82.64999999999999 267.3 -82.64999999999999H269.7C268.8 -59.699999999999996 266.55 -43.199999999999996 262.5 -28.5C258.45 -14.399999999999999 253.8 -5.1 245.55 4.6499999999999995C248.55 6.1499999999999995 250.5 7.5 253.5 10.35C263.25 -1.2 271.05 -21.15 275.1 -45.0C276.9 -56.1 277.05 -57.599999999999994 278.4 -82.64999999999999ZM228.45 -108.89999999999999C240.75 -111.14999999999999 243.45 -111.75 252.89999999999998 -114.45L247.64999999999998 -122.39999999999999C242.7 -119.85 240.14999999999998 -118.94999999999999 233.1 -117.3C222.6 -114.75 213.75 -113.55 197.7 -112.5C199.8 -109.2 200.4 -107.85 201.0 -104.85C211.65 -106.05 215.4 -106.5 220.35 -107.39999999999999V-97.64999999999999H207.15C200.7 -97.64999999999999 197.7 -97.8 194.7 -98.25V-89.7C198.15 -90.14999999999999 201.3 -90.3 207.15 -90.3H220.35V-80.85H208.65C201.45 -80.85 199.05 -81.0 196.2 -81.3C196.65 -77.25 196.8 -74.1 196.8 -68.25V-50.1C196.8 -44.4 196.65 -41.25 196.2 -37.05C200.1 -37.35 203.55 -37.5 208.95 -37.5H220.35V-27.45H207.9C201.6 -27.45 198.3 -27.599999999999998 195.45 -28.05V-19.65C198.6 -20.099999999999998 201.75 -20.25 207.9 -20.25H220.35V-7.5C208.65 -6.3 200.55 -5.7 195.45 -5.7C194.25 -5.7 193.5 -5.7 191.85 -5.85L193.8 3.75C196.2 3.3 199.35 2.85 202.65 2.55C215.55 1.2 230.7 -1.05 249.0 -4.05V-11.7C241.35 -10.2 234.0 -9.0 228.45 -8.4V-20.25H239.1C244.95 -20.25 248.1 -20.099999999999998 251.25 -19.65V-28.05C248.25 -27.599999999999998 245.1 -27.45 238.95 -27.45H228.45V-37.5H241.64999999999998C246.6 -37.5 249.3 -37.5 253.5 -37.199999999999996C253.2 -40.65 253.2 -42.15 253.2 -50.25V-68.55C253.2 -76.35 253.2 -77.85 253.64999999999998 -81.14999999999999C250.95 -80.85 249.45 -80.85 242.1 -80.85H228.45V-90.3H241.5C246.45 -90.3 250.05 -90.14999999999999 254.1 -89.7V-98.39999999999999C250.5 -97.8 246.89999999999998 -97.64999999999999 241.5 -97.64999999999999H228.45ZM228.45 -73.95H245.55V-62.699999999999996H228.45ZM228.45 -56.1H245.55V-44.4H228.45ZM220.35 -44.4H204.45V-56.1H220.35ZM220.35 -62.699999999999996H204.45V-73.95H220.35ZM176.4 -7.8C176.4 0.44999999999999996 176.1 5.7 175.5 10.95H186.0C185.55 5.7 185.4 1.3499999999999999 185.4 -7.6499999999999995V-84.45C190.5 -95.55 194.1 -105.14999999999999 196.65 -114.0C198.15 -119.55 198.3 -119.85 199.35 -122.25L189.6 -124.94999999999999C187.95 -115.19999999999999 184.35 -103.64999999999999 179.4 -92.55C174.3 -81.0 168.6 -71.85 160.65 -62.25C162.9 -59.699999999999996 163.5 -58.949999999999996 165.3 -55.949999999999996C165.45 -55.5 165.9 -54.9 166.35 -54.0C171.6 -61.05 173.85 -64.8 177.0 -71.39999999999999C176.55 -63.599999999999994 176.4 -57.75 176.4 -49.199999999999996Z" fill="#ff6a00" fill-opacity=".07"/>
<g stroke="#ff6a00" stroke-opacity=".5" fill="none"><path d="M940 92H970M905 112L935 192M1005 112L975 192"/></g>
<path d="M808 72H932L940 80V104L932 112H808L800 104V80Z" fill="none" stroke="#ff6a00" stroke-opacity=".22" stroke-width="4.5"/><path d="M808 72H932L940 80V104L932 112H808L800 104V80Z" fill="#10131c" fill-opacity=".85" stroke="#ff6a00" stroke-opacity=".85" stroke-width="1.5"/>
<text x="870" y="97" text-anchor="middle" font-size="11" font-weight="800" letter-spacing="1" fill="#ffb000">MELCHIOR · 1</text>
<path d="M978 72H1102L1110 80V104L1102 112H978L970 104V80Z" fill="none" stroke="#ff6a00" stroke-opacity=".22" stroke-width="4.5"/><path d="M978 72H1102L1110 80V104L1102 112H978L970 104V80Z" fill="#10131c" fill-opacity=".85" stroke="#ff6a00" stroke-opacity=".85" stroke-width="1.5"/>
<text x="1040" y="97" text-anchor="middle" font-size="11" font-weight="800" letter-spacing="1" fill="#ffb000">BALTHASAR · 2</text>
<path d="M893 192H1017L1025 200V224L1017 232H893L885 224V200Z" fill="none" stroke="#ff6a00" stroke-opacity=".22" stroke-width="4.5"/><path d="M893 192H1017L1025 200V224L1017 232H893L885 224V200Z" fill="#10131c" fill-opacity=".85" stroke="#ff6a00" stroke-opacity=".85" stroke-width="1.5"/>
<text x="955" y="217" text-anchor="middle" font-size="11" font-weight="800" letter-spacing="1" fill="#ffb000">CASPER · 3</text>
<path d="M972.0 148.0L963.5 162.7L946.5 162.7L938.0 148.0L946.5 133.3L963.5 133.3Z" fill="#10131c" fill-opacity=".9" stroke="#ffb000" stroke-width="1.5"/>
<text x="955" y="152" text-anchor="middle" font-size="10.5" font-weight="800" fill="#ffb000">3/3</text>
<text x="955" y="174" text-anchor="middle" font-size="7.5" letter-spacing="2" fill="#9a7048">CONSENSUS</text>
<text x="955" y="258" text-anchor="middle" font-size="9.5" letter-spacing="2" fill="#9a7048" font-family="'Hiragino Kaku Gothic ProN','Yu Gothic','Noto Sans JP',sans-serif">MAGI CROSS-VALIDATION · 合議制</text>
<rect x="10" y="282" width="1180" height="28" fill="#0a0c12" stroke="#ff6a00" stroke-opacity=".35"/>
<rect x="10" y="282" width="4" height="28" fill="#ff2d2d" opacity=".85"/>
<text x="32" y="300" font-size="10" letter-spacing="1" fill="#d9a877" font-family="'Hiragino Kaku Gothic ProN','Yu Gothic','Noto Sans JP',sans-serif"><tspan class="blink" fill="#ff9233">&gt;</tspan> 45 AGENTS ACTIVE · MAGI CONSENSUS 3/3 · AI CO-SCIENTIST · MULTI-AGENT SYSTEMS · HUMAN-IN-THE-LOOP · <tspan fill="#ff2d2d">警告 HUMAN OVERRIDE ARMED</tspan></text>
<rect class="scan" x="10" y="10" width="1" height="300" fill="#ffe2c4" fill-opacity=".14"/>
</svg>
