<svg xmlns="http://www.w3.org/2000/svg" width="580" height="260" viewBox="0 0 580 260" role="img" aria-labelledby="title desc">
  <title id="title">Edu FLI</title><desc id="desc">A community platform for future teachers building with educational technology.</desc>
  <defs><linearGradient id="bg" x1="0" y1="0" x2="1" y2="1"><stop stop-color="#11132d"/><stop offset="1" stop-color="#26134a"/></linearGradient><linearGradient id="accent" x1="0" y1="0" x2="1" y2="1"><stop stop-color="#38bdf8"/><stop offset="1" stop-color="#a78bfa"/></linearGradient></defs>
  <rect x="1" y="1" width="578" height="258" rx="24" fill="url(#bg)" stroke="#5b21b6" stroke-width="2"/>
  <text x="34" y="46" fill="#c4b5fd" font-family="Inter,Segoe UI,Arial,sans-serif" font-size="12" font-weight="800" letter-spacing="3">TEACHER EDUCATION × COMMUNITY</text>
  <text x="34" y="84" fill="#faf5ff" font-family="Inter,Segoe UI,Arial,sans-serif" font-size="28" font-weight="850">Edu FLI</text>
  <text x="34" y="113" fill="#cbd5e1" font-family="Inter,Segoe UI,Arial,sans-serif" font-size="14">A community platform where future teachers</text>
  <text x="34" y="134" fill="#cbd5e1" font-family="Inter,Segoe UI,Arial,sans-serif" font-size="14">learn, collaborate, and build with technology.</text>
  <g font-family="Inter,Segoe UI,Arial,sans-serif" font-size="11" font-weight="750"><rect x="34" y="164" width="88" height="28" rx="14" fill="#38bdf8" fill-opacity=".12" stroke="#38bdf8" stroke-opacity=".5"/><text x="78" y="183" fill="#7dd3fc" text-anchor="middle">REACT</text><rect x="132" y="164" width="112" height="28" rx="14" fill="#a78bfa" fill-opacity=".12" stroke="#a78bfa" stroke-opacity=".5"/><text x="188" y="183" fill="#c4b5fd" text-anchor="middle">FIREBASE</text></g>
  <text x="34" y="229" fill="#c4b5fd" font-family="Inter,Segoe UI,Arial,sans-serif" font-size="12" font-weight="800">VIEW THE PLATFORM →</text>
  <g transform="translate(362 42)" fill="none" stroke="url(#accent)" stroke-width="2"><circle cx="84" cy="82" r="34" fill="#24133e" stroke-width="3"/><circle cx="84" cy="18" r="15" fill="#111827"/><circle cx="144" cy="53" r="15" fill="#111827"/><circle cx="144" cy="117" r="15" fill="#111827"/><circle cx="84" cy="148" r="15" fill="#111827"/><circle cx="24" cy="117" r="15" fill="#111827"/><circle cx="24" cy="53" r="15" fill="#111827"/><path d="M84 48V33M114 65l17-8M114 99l17 11M84 116v17M54 99l-17 11M54 65l-17-8"/><text x="84" y="78" fill="#f5f3ff" stroke="none" text-anchor="middle" font-family="Inter,Segoe UI,Arial,sans-serif" font-size="11" font-weight="800">FUTURE</text><text x="84" y="94" fill="#c4b5fd" stroke="none" text-anchor="middle" font-family="Inter,Segoe UI,Arial,sans-serif" font-size="11">TEACHERS</text></g>
</svg>
