<svg xmlns="http://www.w3.org/2000/svg" width="1200" height="270" viewBox="0 0 1200 270" role="img" aria-labelledby="title desc">
<title id="title">NERV System Whitepaper — a 45-agent AI co-scientist system</title>
<desc id="desc">MAGI terminal-style whitepaper card. FIG.03 of 5.</desc>
<defs><linearGradient id="bg" x1="0" y1="0" x2="0" y2="1"><stop offset="0" stop-color="#050609"/><stop offset="1" stop-color="#0a0c12"/></linearGradient>
<radialGradient id="redGlow" cx=".5" cy="-.2" r="1"><stop offset="0" stop-color="#d92720" stop-opacity=".11"/><stop offset="1" stop-color="#d92720" stop-opacity="0"/></radialGradient>
<pattern id="gridFine" width="8" height="8" patternUnits="userSpaceOnUse"><path d="M8 0H0V8" fill="none" stroke="#f4efe6" stroke-opacity=".03"/></pattern>
<pattern id="gridBold" width="40" height="40" patternUnits="userSpaceOnUse"><path d="M40 0H0V40" fill="none" stroke="#f4efe6" stroke-opacity=".05"/></pattern>
<style>text{font-family:ui-monospace,'SF Mono',SFMono-Regular,Menlo,Consolas,'Liberation Mono',monospace;}.scan{animation:scan 16s linear infinite;}@keyframes scan{to{transform:translateX(1180px);}}.blink{animation:blink 2.4s steps(2,start) infinite;}@keyframes blink{50%{opacity:.25;}}@media (prefers-reduced-motion:reduce){.scan,.blink{animation:none;}}</style></defs>
<rect width="1200" height="270" fill="url(#bg)"/>
<rect width="1200" height="270" fill="url(#redGlow)"/>
<rect width="1200" height="270" fill="url(#gridFine)"/>
<rect width="1200" height="270" fill="url(#gridBold)"/>
<rect x="2" y="2" width="1196" height="266" fill="none" stroke="#d8d5ce" stroke-opacity=".6" stroke-width="2.5"/>
<path d="M42 10H1158L1190 42V228L1158 260H42L10 228V42Z" fill="#121419" fill-opacity=".6" stroke="#d8d5ce" stroke-opacity=".6" stroke-width="2"/>
<path d="M40 6L6 40M1194 230L1160 264" stroke="#ff3b30" stroke-opacity=".7" stroke-width="2" fill="none"/>
<rect class="scan" x="10" y="10" width="1" height="250" fill="#f4efe6" fill-opacity=".16"/>
<text x="1040" y="40" text-anchor="end" font-size="9.5" letter-spacing="2" fill="#5c6069">SHEET 03 / 05</text>
<text x="72" y="72" font-size="10" font-weight="800" letter-spacing="3" fill="#ff3b30">NERV TECHNICAL WHITEPAPER</text>
<!-- AI CO-SCIENTIST SYSTEM — Chakra Petch path-rendered -->
<path transform="translate(72,118)" d="M10.56 -28.0H14.96L25.080000000000002 0.0H20.36L17.96 -6.640000000000001H7.5200000000000005L5.12 0.0H0.4ZM16.88 -10.52 12.76 -22.36H12.68L8.64 -10.52Z M29.68 -28.0H34.32V0.0H29.68Z M52.63999999999999 -4.5200000000000005V-23.48L57.16 -28.0H70.28L74.72 -23.56V-19.88H70.08V-21.92L67.96 -24.0H59.559999999999995L57.279999999999994 -21.76V-6.24L59.559999999999995 -4.0H67.96L70.08 -6.08V-8.120000000000001H74.72V-4.44L70.28 0.0H57.16Z M79.72 -4.5200000000000005V-23.48L84.24 -28.0H98.08L102.6 -23.48V-4.5200000000000005L98.08 0.0H84.24ZM95.67999999999999 -4.0 97.96 -6.24V-21.76L95.67999999999999 -24.0H86.63999999999999L84.36 -21.76V-6.24L86.63999999999999 -4.0Z M107.99999999999999 -12.200000000000001H121.27999999999999V-8.28H107.99999999999999Z M126.47999999999999 -4.12V-7.640000000000001H131.04V-5.5200000000000005L132.55999999999997 -4.0H141.27999999999997L142.88 -5.6000000000000005V-10.76L141.32 -12.32H130.67999999999998L126.55999999999999 -16.4V-23.88L130.67999999999998 -28.0H143.0L147.11999999999998 -23.88V-20.32H142.56V-22.48L141.0 -24.0H132.67999999999998L131.11999999999998 -22.48V-17.84L132.67999999999998 -16.32H143.32L147.44 -12.200000000000001V-4.2L143.23999999999998 0.0H130.6Z M153.04 -4.5200000000000005V-23.48L157.55999999999997 -28.0H170.67999999999998L175.11999999999998 -23.56V-19.88H170.48V-21.92L168.35999999999999 -24.0H159.95999999999998L157.67999999999998 -21.76V-6.24L159.95999999999998 -4.0H168.35999999999999L170.48 -6.08V-8.120000000000001H175.11999999999998V-4.44L170.67999999999998 0.0H157.55999999999997Z M180.71999999999997 -28.0H185.35999999999996V0.0H180.71999999999997Z M192.35999999999999 -28.0H211.87999999999997V-24.04H196.99999999999997V-16.04H210.71999999999997V-12.120000000000001H196.99999999999997V-3.96H211.87999999999997V0.0H192.35999999999999Z M217.48 -28.0H221.71999999999997L234.92 -7.640000000000001H234.99999999999997V-28.0H239.43999999999997V0.0H235.2L221.99999999999997 -20.32H221.92V0.0H217.48Z M252.63999999999996 -24.04H244.23999999999998V-28.0H265.67999999999995V-24.04H257.28V0.0H252.63999999999996Z M270.67999999999995 -28.0H275.31999999999994V0.0H270.67999999999995Z M281.7199999999999 -4.12V-7.640000000000001H286.2799999999999V-5.5200000000000005L287.7999999999999 -4.0H296.5199999999999L298.11999999999995 -5.6000000000000005V-10.76L296.55999999999995 -12.32H285.9199999999999L281.7999999999999 -16.4V-23.88L285.9199999999999 -28.0H298.2399999999999L302.3599999999999 -23.88V-20.32H297.79999999999995V-22.48L296.2399999999999 -24.0H287.9199999999999L286.3599999999999 -22.48V-17.84L287.9199999999999 -16.32H298.55999999999995L302.67999999999995 -12.200000000000001V-4.2L298.4799999999999 0.0H285.8399999999999Z M315.0799999999999 -24.04H306.67999999999995V-28.0H328.11999999999995V-24.04H319.7199999999999V0.0H315.0799999999999Z M344.0399999999999 -4.12V-7.640000000000001H348.5999999999999V-5.5200000000000005L350.1199999999999 -4.0H358.8399999999999L360.43999999999994 -5.6000000000000005V-10.76L358.87999999999994 -12.32H348.2399999999999L344.1199999999999 -16.4V-23.88L348.2399999999999 -28.0H360.55999999999995L364.6799999999999 -23.88V-20.32H360.1199999999999V-22.48L358.55999999999995 -24.0H350.2399999999999L348.6799999999999 -22.48V-17.84L350.2399999999999 -16.32H360.87999999999994L364.99999999999994 -12.200000000000001V-4.2L360.7999999999999 0.0H348.1599999999999Z M378.2799999999999 -11.52 368.3999999999999 -28.0H373.4799999999999L380.55999999999995 -15.84H380.63999999999993L387.7199999999999 -28.0H392.79999999999995L382.91999999999996 -11.52V0.0H378.2799999999999Z M396.3999999999999 -4.12V-7.640000000000001H400.9599999999999V-5.5200000000000005L402.4799999999999 -4.0H411.19999999999993L412.79999999999995 -5.6000000000000005V-10.76L411.23999999999995 -12.32H400.5999999999999L396.4799999999999 -16.4V-23.88L400.5999999999999 -28.0H412.91999999999996L417.0399999999999 -23.88V-20.32H412.4799999999999V-22.48L410.91999999999996 -24.0H402.5999999999999L401.0399999999999 -22.48V-17.84L402.5999999999999 -16.32H413.23999999999995L417.35999999999996 -12.200000000000001V-4.2L413.1599999999999 0.0H400.5199999999999Z M429.75999999999993 -24.04H421.35999999999996V-28.0H442.79999999999995V-24.04H434.3999999999999V0.0H429.75999999999993Z M447.59999999999997 -28.0H467.11999999999995V-24.04H452.23999999999995V-16.04H465.96V-12.120000000000001H452.23999999999995V-3.96H467.11999999999995V0.0H447.59999999999997Z M472.71999999999997 -28.0H477.15999999999997L485.71999999999997 -8.72H485.79999999999995L494.35999999999996 -28.0H498.84V0.0H494.4V-18.72H494.31999999999994L487.28 -3.56H484.23999999999995L477.23999999999995 -18.72H477.15999999999997V0.0H472.71999999999997Z" fill="#f4efe6"/>
<text x="74" y="156" font-size="16.5" fill="#d8d5ce">A 45-agent AI co-scientist for complex research workflows.</text>
<text x="74" y="182" font-size="12.5" fill="#8d9098">Role-based agents · autonomous cross-validation · research workflow orchestration</text>
<path d="M81 206H205V224L199 230H75V212Z" fill="none" stroke="#ff3b30" stroke-width="1.5"/>
<text x="140" y="222" text-anchor="middle" font-size="10" letter-spacing="2" fill="#ff3b30">45 AI AGENTS</text>
<path d="M227 206H361V224L355 230H221V212Z" fill="none" stroke="#780f10" stroke-width="1.5"/>
<text x="291" y="222" text-anchor="middle" font-size="10" letter-spacing="2" fill="#d8d5ce">7 SYSTEM ROLES</text>
<path d="M389 206H533V224L527 230H383V212Z" fill="none" stroke="#780f10" stroke-width="1.5"/>
<text x="458" y="222" text-anchor="middle" font-size="10" letter-spacing="2" fill="#d8d5ce">MAGI VALIDATION</text>
<text x="74" y="252" font-size="11" font-weight="800" letter-spacing="2" fill="#ff3b30">READ THE WHITEPAPER →</text>
<circle cx="940" cy="136" r="94" fill="none" stroke="#d8d5ce" stroke-opacity=".18" stroke-dasharray="4 8"/>
<path d="M940.0 104.0L940.0 66.0M964.9 116.0L994.8 92.0M971.2 143.0L1008.2 151.3M954.0 164.8L970.5 198.8M926.0 164.8L909.5 198.8M908.8 143.0L871.8 151.3M915.1 116.0L885.2 92.0" stroke="#d8d5ce" stroke-opacity=".45" fill="none"/>
<circle cx="940" cy="136" r="32" fill="#121419" fill-opacity=".6" stroke="#f4efe6" stroke-opacity=".85" stroke-width="2"/>
<circle cx="940" cy="136" r="26" fill="none" stroke="#d8d5ce" stroke-opacity=".3"/>
<circle class="blink" cx="940" cy="58" r="8" fill="#121419" fill-opacity=".9" stroke="#d8d5ce" stroke-opacity=".7" stroke-width="1.5"/>
<circle cx="1001" cy="87" r="8" fill="#121419" fill-opacity=".9" stroke="#d8d5ce" stroke-opacity=".7" stroke-width="1.5"/>
<circle cx="1016" cy="153" r="8" fill="#121419" fill-opacity=".9" stroke="#d8d5ce" stroke-opacity=".7" stroke-width="1.5"/>
<circle cx="974" cy="206" r="8" fill="#121419" fill-opacity=".9" stroke="#d8d5ce" stroke-opacity=".7" stroke-width="1.5"/>
<circle cx="906" cy="206" r="8" fill="#121419" fill-opacity=".9" stroke="#d8d5ce" stroke-opacity=".7" stroke-width="1.5"/>
<circle cx="864" cy="153" r="8" fill="#121419" fill-opacity=".9" stroke="#d8d5ce" stroke-opacity=".7" stroke-width="1.5"/>
<circle cx="879" cy="87" r="8" fill="#121419" fill-opacity=".9" stroke="#d8d5ce" stroke-opacity=".7" stroke-width="1.5"/>
<text x="940" y="132" text-anchor="middle" font-size="10.5" font-weight="800" letter-spacing="1" fill="#f4efe6">RESEARCH</text>
<text x="940" y="146" text-anchor="middle" font-size="9" letter-spacing="1" fill="#8d9098">CORE</text>
<text x="796" y="157" text-anchor="end" font-size="10.5" font-weight="700" letter-spacing="1" fill="#ff3b30">ø 7 ROLES</text>
<path d="M804 153H846" stroke="#ff3b30" stroke-opacity=".8" fill="none"/>
<text x="1000" y="250" text-anchor="middle" font-size="9" letter-spacing="2" fill="#5c6069">NERV SYSTEM WHITEPAPER</text>
<g transform="translate(1114 62)">
<rect x="-56" y="-26" width="112" height="48" fill="none" stroke="#ff3b30" stroke-opacity=".25" stroke-width="4" rx="3"/>
<rect x="-56" y="-26" width="112" height="48" fill="none" stroke="#ff3b30" stroke-opacity=".85" stroke-width="1.5" rx="3"/>
<text x="0" y="-4" text-anchor="middle" font-size="10" letter-spacing="3" font-weight="800" fill="#ff3b30">MAGI</text>
<text x="0" y="14" text-anchor="middle" font-size="10" letter-spacing="3" font-weight="800" fill="#ff3b30">VALIDATED</text>
</g>
<g font-size="8"><rect x="520" y="234" width="346" height="24" fill="none" stroke="#d8d5ce" stroke-opacity=".5"/><path d="M584 234v24M736 234v24M800 234v24" stroke="#d8d5ce" stroke-opacity=".35"/><text x="552" y="249" text-anchor="middle" font-weight="800" letter-spacing="1" fill="#ff3b30">FIG.03</text><text x="660" y="249" text-anchor="middle" fill="#8d9098">DOC NO. NERV-TL-2026-03</text><text x="768" y="249" text-anchor="middle" fill="#8d9098">REV 2026.07</text><text x="833" y="249" text-anchor="middle" fill="#8d9098">MAGI CHECKED</text></g>
</svg>
