<svg xmlns="http://www.w3.org/2000/svg" width="1200" height="270" viewBox="0 0 1200 270" role="img" aria-labelledby="title desc"><title id="title">NERV System Whitepaper — a 45-agent AI co-scientist system</title><desc id="desc">NERV MAGI terminal-style whitepaper card in Evangelion HUD aesthetic, identical in light and dark mode.</desc>
<defs><linearGradient id="bg" x1="0" y1="0" x2="0" y2="1"><stop offset="0" stop-color="#050609"/><stop offset="1" stop-color="#0a0c12"/></linearGradient><radialGradient id="glow" cx=".5" cy="-.2" r="1"><stop offset="0" stop-color="#ff6a00" stop-opacity=".10"/><stop offset="1" stop-color="#ff6a00" stop-opacity="0"/></radialGradient><radialGradient id="vig" cx=".5" cy=".5" r=".75"><stop offset=".62" stop-color="#000" stop-opacity="0"/><stop offset="1" stop-color="#000" stop-opacity=".45"/></radialGradient><pattern id="hexes" width="48" height="27.713" patternUnits="userSpaceOnUse"><path d="M16.0 0.0L8.0 13.9L-8.0 13.9L-16.0 0.0L-8.0 -13.9L8.0 -13.9ZM64.0 0.0L56.0 13.9L40.0 13.9L32.0 0.0L40.0 -13.9L56.0 -13.9ZM16.0 27.7L8.0 41.6L-8.0 41.6L-16.0 27.7L-8.0 13.9L8.0 13.9ZM64.0 27.7L56.0 41.6L40.0 41.6L32.0 27.7L40.0 13.9L56.0 13.9ZM40.0 13.9L32.0 27.7L16.0 27.7L8.0 13.9L16.0 0.0L32.0 0.0Z" fill="none" stroke="#ff6a00" stroke-opacity=".07"/></pattern><pattern id="crt" width="4" height="3" patternUnits="userSpaceOnUse"><rect width="4" height="1" fill="#ffe2c4" fill-opacity=".04"/></pattern><pattern id="hz" width="12" height="12" patternUnits="userSpaceOnUse" patternTransform="rotate(45)"><rect width="6" height="12" fill="#ff6a00"/></pattern><style>text{font-family:ui-monospace,'SF Mono',SFMono-Regular,Menlo,Consolas,'Liberation Mono',monospace;}.scan{animation:scan 16s linear infinite;}@keyframes scan{to{transform:translateX(1180px);}}.blink{animation:blink 1.6s steps(1) infinite;}@keyframes blink{0%,49%{opacity:1;}50%,100%{opacity:.15;}}.pulse{animation:pulse 2.4s ease-in-out infinite;}@keyframes pulse{50%{opacity:.3;}}.flow{stroke-dasharray:5 7;animation:flow 12s linear infinite;}@keyframes flow{to{stroke-dashoffset:-96;}}@media (prefers-reduced-motion:reduce){.scan,.blink,.pulse,.flow{animation:none;}}</style></defs>
<rect width="1200" height="270" fill="url(#bg)"/><rect width="1200" height="270" fill="url(#glow)"/><rect width="1200" height="270" fill="url(#hexes)"/><rect width="1200" height="270" fill="url(#crt)"/><rect width="1200" height="270" fill="url(#vig)"/>
<rect x="2" y="2" width="1196" height="7" fill="url(#hz)" opacity=".75"/><line x1="2" y1="10" x2="1198" y2="10" stroke="#000" stroke-width="1.5"/><rect x="2" y="2" width="1196" height="266" fill="none" stroke="#ff6a00" stroke-opacity=".4" stroke-width="2"/>
<path transform="translate(840,240)" d="M99.71000000000001 -41.47V-105.56H84.5V-77.48H63.18V-65.0H84.5V-41.47ZM99.71000000000001 8.84V-35.49H23.53V8.84ZM84.5 -2.99H38.870000000000005V-23.66H84.5ZM63.18 -98.67H9.36V-86.06H46.28C42.120000000000005 -66.82000000000001 25.35 -54.86 4.29 -49.53L12.35 -37.31C44.33 -48.230000000000004 61.88 -66.43 63.18 -98.67Z M216.97 -11.31C216.97 -24.44 202.15 -32.63 176.41 -32.63C150.8 -32.63 135.98 -24.44 135.98 -11.31C135.98 2.08 150.8 10.27 176.54 10.27C202.15 10.27 216.97 2.08 216.97 -11.31ZM223.47 -68.64C208.0 -69.42 190.45 -76.57000000000001 185.9 -88.4H218.4V-100.49000000000001H134.94V-88.4H167.57C163.54 -76.57000000000001 147.68 -69.29 129.74 -68.38L135.98 -56.68C154.31 -58.24 170.69 -66.69 176.54 -78.26C183.17000000000002 -67.08 200.07 -58.11 216.97 -56.68ZM228.8 -50.18H124.15V-38.22H228.8ZM201.37 -11.18C201.37 -5.33 191.62 -1.69 176.41 -1.69C161.46 -1.69 151.71 -5.33 151.71 -11.18C151.71 -17.03 161.46 -20.67 176.41 -20.67C191.62 -20.67 201.37 -17.03 201.37 -11.18Z" fill="#ff6a00" fill-opacity=".06"/>
<text x="72" y="66" font-size="10" font-weight="800" letter-spacing="3" fill="#ffb000">NERV TECHNICAL WHITEPAPER</text>
<line x1="72" y1="76" x2="360" y2="76" stroke="#8a3c00" stroke-opacity=".8"/>
<!-- AI CO-SCIENTIST SYSTEM — Chakra Petch path-rendered -->
<path transform="translate(72,120)" d="M10.56 -28.0H14.96L25.080000000000002 0.0H20.36L17.96 -6.640000000000001H7.5200000000000005L5.12 0.0H0.4ZM16.88 -10.52 12.76 -22.36H12.68L8.64 -10.52Z M29.68 -28.0H34.32V0.0H29.68Z M52.63999999999999 -4.5200000000000005V-23.48L57.16 -28.0H70.28L74.72 -23.56V-19.88H70.08V-21.92L67.96 -24.0H59.559999999999995L57.279999999999994 -21.76V-6.24L59.559999999999995 -4.0H67.96L70.08 -6.08V-8.120000000000001H74.72V-4.44L70.28 0.0H57.16Z M79.72 -4.5200000000000005V-23.48L84.24 -28.0H98.08L102.6 -23.48V-4.5200000000000005L98.08 0.0H84.24ZM95.67999999999999 -4.0 97.96 -6.24V-21.76L95.67999999999999 -24.0H86.63999999999999L84.36 -21.76V-6.24L86.63999999999999 -4.0Z M107.99999999999999 -12.200000000000001H121.27999999999999V-8.28H107.99999999999999Z M126.47999999999999 -4.12V-7.640000000000001H131.04V-5.5200000000000005L132.55999999999997 -4.0H141.27999999999997L142.88 -5.6000000000000005V-10.76L141.32 -12.32H130.67999999999998L126.55999999999999 -16.4V-23.88L130.67999999999998 -28.0H143.0L147.11999999999998 -23.88V-20.32H142.56V-22.48L141.0 -24.0H132.67999999999998L131.11999999999998 -22.48V-17.84L132.67999999999998 -16.32H143.32L147.44 -12.200000000000001V-4.2L143.23999999999998 0.0H130.6Z M153.04 -4.5200000000000005V-23.48L157.55999999999997 -28.0H170.67999999999998L175.11999999999998 -23.56V-19.88H170.48V-21.92L168.35999999999999 -24.0H159.95999999999998L157.67999999999998 -21.76V-6.24L159.95999999999998 -4.0H168.35999999999999L170.48 -6.08V-8.120000000000001H175.11999999999998V-4.44L170.67999999999998 0.0H157.55999999999997Z M180.71999999999997 -28.0H185.35999999999996V0.0H180.71999999999997Z M192.35999999999999 -28.0H211.87999999999997V-24.04H196.99999999999997V-16.04H210.71999999999997V-12.120000000000001H196.99999999999997V-3.96H211.87999999999997V0.0H192.35999999999999Z M217.48 -28.0H221.71999999999997L234.92 -7.640000000000001H234.99999999999997V-28.0H239.43999999999997V0.0H235.2L221.99999999999997 -20.32H221.92V0.0H217.48Z M252.63999999999996 -24.04H244.23999999999998V-28.0H265.67999999999995V-24.04H257.28V0.0H252.63999999999996Z M270.67999999999995 -28.0H275.31999999999994V0.0H270.67999999999995Z M281.7199999999999 -4.12V-7.640000000000001H286.2799999999999V-5.5200000000000005L287.7999999999999 -4.0H296.5199999999999L298.11999999999995 -5.6000000000000005V-10.76L296.55999999999995 -12.32H285.9199999999999L281.7999999999999 -16.4V-23.88L285.9199999999999 -28.0H298.2399999999999L302.3599999999999 -23.88V-20.32H297.79999999999995V-22.48L296.2399999999999 -24.0H287.9199999999999L286.3599999999999 -22.48V-17.84L287.9199999999999 -16.32H298.55999999999995L302.67999999999995 -12.200000000000001V-4.2L298.4799999999999 0.0H285.8399999999999Z M315.0799999999999 -24.04H306.67999999999995V-28.0H328.11999999999995V-24.04H319.7199999999999V0.0H315.0799999999999Z M344.0399999999999 -4.12V-7.640000000000001H348.5999999999999V-5.5200000000000005L350.1199999999999 -4.0H358.8399999999999L360.43999999999994 -5.6000000000000005V-10.76L358.87999999999994 -12.32H348.2399999999999L344.1199999999999 -16.4V-23.88L348.2399999999999 -28.0H360.55999999999995L364.6799999999999 -23.88V-20.32H360.1199999999999V-22.48L358.55999999999995 -24.0H350.2399999999999L348.6799999999999 -22.48V-17.84L350.2399999999999 -16.32H360.87999999999994L364.99999999999994 -12.200000000000001V-4.2L360.7999999999999 0.0H348.1599999999999Z M378.2799999999999 -11.52 368.3999999999999 -28.0H373.4799999999999L380.55999999999995 -15.84H380.63999999999993L387.7199999999999 -28.0H392.79999999999995L382.91999999999996 -11.52V0.0H378.2799999999999Z M396.3999999999999 -4.12V-7.640000000000001H400.9599999999999V-5.5200000000000005L402.4799999999999 -4.0H411.19999999999993L412.79999999999995 -5.6000000000000005V-10.76L411.23999999999995 -12.32H400.5999999999999L396.4799999999999 -16.4V-23.88L400.5999999999999 -28.0H412.91999999999996L417.0399999999999 -23.88V-20.32H412.4799999999999V-22.48L410.91999999999996 -24.0H402.5999999999999L401.0399999999999 -22.48V-17.84L402.5999999999999 -16.32H413.23999999999995L417.35999999999996 -12.200000000000001V-4.2L413.1599999999999 0.0H400.5199999999999Z M429.75999999999993 -24.04H421.35999999999996V-28.0H442.79999999999995V-24.04H434.3999999999999V0.0H429.75999999999993Z M447.59999999999997 -28.0H467.11999999999995V-24.04H452.23999999999995V-16.04H465.96V-12.120000000000001H452.23999999999995V-3.96H467.11999999999995V0.0H447.59999999999997Z M472.71999999999997 -28.0H477.15999999999997L485.71999999999997 -8.72H485.79999999999995L494.35999999999996 -28.0H498.84V0.0H494.4V-18.72H494.31999999999994L487.28 -3.56H484.23999999999995L477.23999999999995 -18.72H477.15999999999997V0.0H472.71999999999997Z" fill="#ffe2c4"/>
<text x="74" y="156" font-size="16.5" fill="#d9a877">A 45-agent AI co-scientist for complex research workflows.</text>
<text x="74" y="182" font-size="12.5" fill="#9a7048">Role-based agents · autonomous cross-validation · research workflow orchestration</text>
<path d="M81 202H205V220L199 226H75V208Z" fill="none" stroke="#ff6a00" stroke-width="1.5" stroke-opacity=".8"/>
<text x="140" y="218" text-anchor="middle" font-size="10" letter-spacing="2" fill="#d9a877">45 AI AGENTS</text>
<path d="M227 202H361V220L355 226H221V208Z" fill="none" stroke="#ff6a00" stroke-width="1.5" stroke-opacity=".8"/>
<text x="291" y="218" text-anchor="middle" font-size="10" letter-spacing="2" fill="#d9a877">7 SYSTEM ROLES</text>
<path d="M389 202H533V220L527 226H383V208Z" fill="none" stroke="#ff6a00" stroke-width="1.5" stroke-opacity=".8"/>
<text x="458" y="218" text-anchor="middle" font-size="10" letter-spacing="2" fill="#d9a877">MAGI VALIDATION</text>
<path d="M78 236H298L304 242V256L298 262H78L72 256V242Z" fill="none" stroke="#ff6a00" stroke-opacity=".22" stroke-width="4.5"/><path d="M78 236H298L304 242V256L298 262H78L72 256V242Z" fill="#10131c" fill-opacity=".8" stroke="#ff6a00" stroke-opacity=".85" stroke-width="1.5"/>
<text x="188" y="253" text-anchor="middle" font-size="11" font-weight="800" letter-spacing="2" fill="#ff9233">READ THE WHITEPAPER →</text>
<circle cx="940" cy="136" r="94" fill="none" stroke="#ff6a00" stroke-opacity=".2" stroke-dasharray="4 8"/>
<path d="M940.0 102.0L940.0 67.0M966.5 114.7L994.0 92.6M973.2 143.4L1007.2 151.0M954.9 166.6L970.1 197.9M925.1 166.6L909.9 197.9M906.8 143.4L872.8 151.0M913.5 114.7L886.0 92.6" stroke="#ff6a00" stroke-opacity=".45" fill="none"/>
<path d="M974.0 136.0L957.0 165.4L923.0 165.4L906.0 136.0L923.0 106.6L957.0 106.6Z" fill="#10131c" fill-opacity=".9" stroke="#ffe2c4" stroke-opacity=".85" stroke-width="2"/>
<path d="M967.0 136.0L953.5 159.4L926.5 159.4L913.0 136.0L926.5 112.6L953.5 112.6Z" fill="none" stroke="#ff6a00" stroke-opacity=".4"/>
<path class="blink" d="M949.0 58.0L944.5 65.8L935.5 65.8L931.0 58.0L935.5 50.2L944.5 50.2Z" fill="#10131c" fill-opacity=".9" stroke="#ff6a00" stroke-opacity=".8" stroke-width="1.5"/>
<path d="M1010.0 87.0L1005.5 94.8L996.5 94.8L992.0 87.0L996.5 79.2L1005.5 79.2Z" fill="#10131c" fill-opacity=".9" stroke="#ff6a00" stroke-opacity=".8" stroke-width="1.5"/>
<path d="M1025.0 153.0L1020.5 160.8L1011.5 160.8L1007.0 153.0L1011.5 145.2L1020.5 145.2Z" fill="#10131c" fill-opacity=".9" stroke="#ff6a00" stroke-opacity=".8" stroke-width="1.5"/>
<path d="M983.0 206.0L978.5 213.8L969.5 213.8L965.0 206.0L969.5 198.2L978.5 198.2Z" fill="#10131c" fill-opacity=".9" stroke="#ff6a00" stroke-opacity=".8" stroke-width="1.5"/>
<path d="M915.0 206.0L910.5 213.8L901.5 213.8L897.0 206.0L901.5 198.2L910.5 198.2Z" fill="#10131c" fill-opacity=".9" stroke="#ff6a00" stroke-opacity=".8" stroke-width="1.5"/>
<path d="M873.0 153.0L868.5 160.8L859.5 160.8L855.0 153.0L859.5 145.2L868.5 145.2Z" fill="#10131c" fill-opacity=".9" stroke="#ff6a00" stroke-opacity=".8" stroke-width="1.5"/>
<path d="M888.0 87.0L883.5 94.8L874.5 94.8L870.0 87.0L874.5 79.2L883.5 79.2Z" fill="#10131c" fill-opacity=".9" stroke="#ff6a00" stroke-opacity=".8" stroke-width="1.5"/>
<text x="940" y="132" text-anchor="middle" font-size="10.5" font-weight="800" letter-spacing="1" fill="#ffe2c4">RESEARCH</text>
<text x="940" y="146" text-anchor="middle" font-size="9" letter-spacing="1" fill="#9a7048">CORE</text>
<text x="796" y="157" text-anchor="end" font-size="10.5" font-weight="700" letter-spacing="1" fill="#ffb000">ø 7 ROLES</text>
<path d="M804 153H842" stroke="#ffb000" stroke-opacity=".8" fill="none"/>
<text x="1000" y="252" text-anchor="middle" font-size="9" letter-spacing="2" fill="#9a7048">NERV SYSTEM WHITEPAPER</text>
<g transform="translate(1118 60)"><path d="M34.0 0.0L17.0 29.4L-17.0 29.4L-34.0 0.0L-17.0 -29.4L17.0 -29.4Z" fill="#10131c" fill-opacity=".9" stroke="#ffb000" stroke-opacity=".25" stroke-width="5"/><path d="M34.0 0.0L17.0 29.4L-17.0 29.4L-34.0 0.0L-17.0 -29.4L17.0 -29.4Z" fill="none" stroke="#ffb000" stroke-width="1.5"/><text y="-3" text-anchor="middle" font-size="9.5" font-weight="800" letter-spacing="1" fill="#ffb000">MAGI</text><text y="10" text-anchor="middle" font-size="7.5" font-weight="800" letter-spacing="1" fill="#ffb000">VALIDATED</text></g>
<rect class="scan" x="10" y="10" width="1" height="250" fill="#ffe2c4" fill-opacity=".14"/>
</svg>
