<svg xmlns="http://www.w3.org/2000/svg" width="1200" height="270" viewBox="0 0 1200 270" role="img" aria-labelledby="title desc"><title id="title">NERV System Whitepaper — a 45-agent AI co-scientist system</title><desc id="desc">NERV MAGI terminal-style whitepaper card in Evangelion HUD aesthetic, identical in light and dark mode.</desc>
<defs><linearGradient id="bg" x1="0" y1="0" x2="0" y2="1"><stop offset="0" stop-color="#050609"/><stop offset="1" stop-color="#0a0c12"/></linearGradient><radialGradient id="glow" cx=".5" cy="-.2" r="1"><stop offset="0" stop-color="#ff6a00" stop-opacity=".10"/><stop offset="1" stop-color="#ff6a00" stop-opacity="0"/></radialGradient><radialGradient id="vig" cx=".5" cy=".5" r=".75"><stop offset=".62" stop-color="#000" stop-opacity="0"/><stop offset="1" stop-color="#000" stop-opacity=".45"/></radialGradient><pattern id="hexes" width="48" height="27.713" patternUnits="userSpaceOnUse"><path d="M16.0 0.0L8.0 13.9L-8.0 13.9L-16.0 0.0L-8.0 -13.9L8.0 -13.9ZM64.0 0.0L56.0 13.9L40.0 13.9L32.0 0.0L40.0 -13.9L56.0 -13.9ZM16.0 27.7L8.0 41.6L-8.0 41.6L-16.0 27.7L-8.0 13.9L8.0 13.9ZM64.0 27.7L56.0 41.6L40.0 41.6L32.0 27.7L40.0 13.9L56.0 13.9ZM40.0 13.9L32.0 27.7L16.0 27.7L8.0 13.9L16.0 0.0L32.0 0.0Z" fill="none" stroke="#ff6a00" stroke-opacity=".07"/></pattern><pattern id="crt" width="4" height="3" patternUnits="userSpaceOnUse"><rect width="4" height="1" fill="#ffe2c4" fill-opacity=".04"/></pattern><pattern id="hz" width="12" height="12" patternUnits="userSpaceOnUse" patternTransform="rotate(45)"><rect width="6" height="12" fill="#ff6a00"/></pattern><style>text{font-family:ui-monospace,'SF Mono',SFMono-Regular,Menlo,Consolas,'Liberation Mono',monospace;}.scan{animation:scan 16s linear infinite;}@keyframes scan{to{transform:translateX(1180px);}}.blink{animation:blink 1.6s steps(1) infinite;}@keyframes blink{0%,49%{opacity:1;}50%,100%{opacity:.15;}}.pulse{animation:pulse 2.4s ease-in-out infinite;}@keyframes pulse{50%{opacity:.3;}}.flow{stroke-dasharray:5 7;animation:flow 12s linear infinite;}@keyframes flow{to{stroke-dashoffset:-96;}}@media (prefers-reduced-motion:reduce){.scan,.blink,.pulse,.flow{animation:none;}}</style></defs>
<rect width="1200" height="270" fill="url(#bg)"/><rect width="1200" height="270" fill="url(#glow)"/><rect width="1200" height="270" fill="url(#hexes)"/><rect width="1200" height="270" fill="url(#crt)"/><rect width="1200" height="270" fill="url(#vig)"/>
<rect x="2" y="2" width="1196" height="7" fill="url(#hz)" opacity=".75"/><line x1="2" y1="10" x2="1198" y2="10" stroke="#000" stroke-width="1.5"/><rect x="2" y="2" width="1196" height="266" fill="none" stroke="#ff6a00" stroke-opacity=".4" stroke-width="2"/>
<path transform="translate(840,240)" d="M77.87 -68.77V-62.400000000000006C77.87 -60.45 77.87 -59.54 77.87 -57.46H60.97C54.47 -57.46 53.43 -57.46 49.53 -57.85C49.79 -55.120000000000005 49.92 -53.300000000000004 49.92 -49.4V-34.19C49.92 -31.330000000000002 49.79 -28.73 49.53 -26.130000000000003C53.17 -26.52 56.42 -26.650000000000002 61.36 -26.650000000000002H74.10000000000001C69.16 -12.22 58.63 -3.64 39.13 1.82C41.34 4.03 42.51 5.720000000000001 44.07 9.1C54.34 5.07 60.580000000000005 1.82 65.91 -2.34C73.06 -7.930000000000001 78.39 -15.21 81.12 -23.400000000000002C84.63000000000001 -16.64 87.62 -12.74 93.08 -7.41C100.62 -0.13 108.68 4.8100000000000005 120.25 9.1C121.55 6.11 122.85000000000001 3.9000000000000004 125.06 1.17C106.73 -4.16 94.12 -13.26 86.97 -26.650000000000002H102.57000000000001C108.16 -26.650000000000002 111.67 -26.52 115.18 -26.130000000000003C114.92 -28.990000000000002 114.79 -31.07 114.79 -35.88V-48.49C114.79 -51.61 114.92 -54.6 115.18 -57.85C111.8 -57.59 108.81 -57.46 103.35000000000001 -57.46H85.41C85.54 -61.88 85.54 -61.88 85.54 -63.96V-68.77H92.82000000000001C97.89 -68.77 100.75 -68.64 104.39 -68.25V-76.05C110.37 -71.63 114.4 -68.9 121.55 -65.0C123.24000000000001 -68.51 124.28 -70.07000000000001 126.49000000000001 -72.54C115.83 -77.35000000000001 108.03 -82.29 99.84 -89.57000000000001C93.60000000000001 -95.29 89.57000000000001 -99.97 85.28 -106.86L86.32000000000001 -108.94L77.87 -112.06C73.71000000000001 -103.61 70.07000000000001 -97.37 66.3 -92.69C60.06 -84.89 51.870000000000005 -78.0 40.95 -71.37C43.160000000000004 -69.68 44.33 -68.25 46.28 -64.87C52.65 -69.16 54.99 -70.98 60.32 -75.53V-68.25C64.09 -68.64 66.82000000000001 -68.77 71.89 -68.77ZM77.61 -50.7C77.35000000000001 -44.2 76.7 -37.83 75.79 -33.28H57.46V-50.7ZM107.25 -50.7V-33.28H83.46000000000001C84.24000000000001 -37.57 84.89 -43.550000000000004 85.28 -50.7ZM71.89 -75.79C67.21000000000001 -75.79 63.7 -75.92 61.1 -76.18C69.81 -84.11 74.75 -90.09 80.99000000000001 -100.36C88.92 -89.18 94.12 -83.85000000000001 104.13000000000001 -76.18C101.27000000000001 -75.92 97.89 -75.79 92.82000000000001 -75.79ZM31.98 -59.93C38.61 -49.660000000000004 38.61 -49.660000000000004 41.6 -43.42L47.190000000000005 -48.36C43.68 -54.08 38.74 -60.97 33.93 -66.95C32.63 -68.51 32.63 -68.51 31.98 -69.42V-75.27H37.18C40.17 -75.27 42.64 -75.14 45.24 -74.88V-83.07000000000001C42.9 -82.68 40.82 -82.55 37.050000000000004 -82.55H31.98V-95.42C31.98 -101.79 32.11 -105.43 32.63 -108.68H23.66C24.18 -105.56 24.310000000000002 -102.7 24.310000000000002 -95.29V-82.55H15.99C11.83 -82.55 9.1 -82.68 6.890000000000001 -83.07000000000001V-74.75C9.1 -75.14 12.09 -75.27 15.99 -75.27H22.880000000000003C22.36 -71.76 20.150000000000002 -63.830000000000005 17.94 -57.59C14.17 -46.54 9.620000000000001 -37.57 3.9000000000000004 -29.77C6.11 -27.43 7.15 -26.130000000000003 9.1 -22.36C14.690000000000001 -31.330000000000002 18.72 -40.43 21.32 -49.660000000000004C23.79 -58.370000000000005 23.79 -58.370000000000005 24.96 -62.400000000000006C24.57 -54.6 24.310000000000002 -47.71 24.310000000000002 -41.86V-5.07C24.310000000000002 1.69 24.05 6.24 23.53 10.01H32.76C32.24 6.5 31.98 1.9500000000000002 31.98 -5.07Z M224.38 -4.55H208.0V-57.72C208.0 -63.57 208.26000000000002 -67.34 208.78000000000003 -70.85000000000001H199.16000000000003C199.81 -66.69 199.94 -63.31 199.94 -57.72V-4.55C194.22000000000003 -4.55 192.27 -4.68 189.41000000000003 -5.07V3.77C192.66000000000003 3.25 196.3 3.12 202.67000000000002 3.12H249.73000000000002C255.32000000000002 3.12 259.35 3.38 262.99 3.9000000000000004V-5.33C259.22 -4.8100000000000005 255.19 -4.55 249.86 -4.55H232.57000000000002V-49.4H245.83C251.16000000000003 -49.4 255.06 -49.14 258.44 -48.620000000000005V-57.72C254.93 -57.2 251.42000000000002 -56.940000000000005 245.83 -56.940000000000005H232.57000000000002V-93.99000000000001H247.26000000000002C252.85000000000002 -93.99000000000001 256.88 -93.73 260.65000000000003 -93.21000000000001V-102.31C257.01 -101.79 252.98000000000002 -101.53 247.26000000000002 -101.53H206.70000000000002C200.85000000000002 -101.53 196.95000000000002 -101.79 193.31 -102.31V-93.21000000000001C197.21 -93.73 201.11 -93.99000000000001 206.70000000000002 -93.99000000000001H224.38ZM170.3 -88.53 174.98000000000002 -92.17C169.65 -99.58 167.18 -102.57000000000001 161.72000000000003 -108.03L155.87 -103.35000000000001C160.68 -98.67 164.84 -93.60000000000001 167.96 -88.53H154.44C149.5 -88.53 147.03 -88.66 144.04000000000002 -89.18V-80.73C147.16000000000003 -81.12 149.76000000000002 -81.25 154.44 -81.25H180.57000000000002C185.25 -81.25 186.94 -81.12 189.93 -80.73V-89.18C186.94 -88.66 184.86 -88.53 179.53000000000003 -88.53ZM149.11 -62.14C152.10000000000002 -62.53 154.05 -62.660000000000004 158.47000000000003 -62.660000000000004H176.54000000000002C180.83 -62.660000000000004 182.52 -62.53 185.77 -62.14V-70.2C183.3 -69.81 181.09 -69.68 176.54000000000002 -69.68H158.47000000000003C153.92000000000002 -69.68 151.71 -69.81 149.11 -70.2ZM149.11 -43.68C151.71 -44.07 154.05 -44.2 158.47000000000003 -44.2H176.54000000000002C180.96 -44.2 182.65 -44.07 185.77 -43.68V-51.74C183.04000000000002 -51.35 181.09 -51.22 176.54000000000002 -51.22H158.47000000000003C154.05 -51.22 151.58 -51.35 149.11 -51.74ZM156.65 9.75V1.82H177.58V8.06H185.25C184.99 5.59 184.86 2.6 184.86 -2.6V-22.1C184.86 -26.78 184.99 -29.64 185.25 -32.370000000000005C182.91000000000003 -31.98 181.48000000000002 -31.98 175.89000000000001 -31.98H158.99C155.22000000000003 -31.98 151.97 -32.11 148.59 -32.5C149.11 -29.12 149.24 -26.130000000000003 149.24 -21.580000000000002V-2.8600000000000003C149.24 2.47 148.98000000000002 5.8500000000000005 148.46 9.75ZM156.65 -25.220000000000002H177.58V-4.94H156.65Z" fill="#ff6a00" fill-opacity=".06"/>
<text x="72" y="66" font-size="10" font-weight="800" letter-spacing="3" fill="#ffb000">NERV TECHNICAL WHITEPAPER</text>
<line x1="72" y1="76" x2="360" y2="76" stroke="#8a3c00" stroke-opacity=".8"/>
<!-- AI CO-SCIENTIST SYSTEM — Chakra Petch path-rendered -->
<path transform="translate(72,120)" d="M10.56 -28.0H14.96L25.080000000000002 0.0H20.36L17.96 -6.640000000000001H7.5200000000000005L5.12 0.0H0.4ZM16.88 -10.52 12.76 -22.36H12.68L8.64 -10.52Z M29.68 -28.0H34.32V0.0H29.68Z M52.63999999999999 -4.5200000000000005V-23.48L57.16 -28.0H70.28L74.72 -23.56V-19.88H70.08V-21.92L67.96 -24.0H59.559999999999995L57.279999999999994 -21.76V-6.24L59.559999999999995 -4.0H67.96L70.08 -6.08V-8.120000000000001H74.72V-4.44L70.28 0.0H57.16Z M79.72 -4.5200000000000005V-23.48L84.24 -28.0H98.08L102.6 -23.48V-4.5200000000000005L98.08 0.0H84.24ZM95.67999999999999 -4.0 97.96 -6.24V-21.76L95.67999999999999 -24.0H86.63999999999999L84.36 -21.76V-6.24L86.63999999999999 -4.0Z M107.99999999999999 -12.200000000000001H121.27999999999999V-8.28H107.99999999999999Z M126.47999999999999 -4.12V-7.640000000000001H131.04V-5.5200000000000005L132.55999999999997 -4.0H141.27999999999997L142.88 -5.6000000000000005V-10.76L141.32 -12.32H130.67999999999998L126.55999999999999 -16.4V-23.88L130.67999999999998 -28.0H143.0L147.11999999999998 -23.88V-20.32H142.56V-22.48L141.0 -24.0H132.67999999999998L131.11999999999998 -22.48V-17.84L132.67999999999998 -16.32H143.32L147.44 -12.200000000000001V-4.2L143.23999999999998 0.0H130.6Z M153.04 -4.5200000000000005V-23.48L157.55999999999997 -28.0H170.67999999999998L175.11999999999998 -23.56V-19.88H170.48V-21.92L168.35999999999999 -24.0H159.95999999999998L157.67999999999998 -21.76V-6.24L159.95999999999998 -4.0H168.35999999999999L170.48 -6.08V-8.120000000000001H175.11999999999998V-4.44L170.67999999999998 0.0H157.55999999999997Z M180.71999999999997 -28.0H185.35999999999996V0.0H180.71999999999997Z M192.35999999999999 -28.0H211.87999999999997V-24.04H196.99999999999997V-16.04H210.71999999999997V-12.120000000000001H196.99999999999997V-3.96H211.87999999999997V0.0H192.35999999999999Z M217.48 -28.0H221.71999999999997L234.92 -7.640000000000001H234.99999999999997V-28.0H239.43999999999997V0.0H235.2L221.99999999999997 -20.32H221.92V0.0H217.48Z M252.63999999999996 -24.04H244.23999999999998V-28.0H265.67999999999995V-24.04H257.28V0.0H252.63999999999996Z M270.67999999999995 -28.0H275.31999999999994V0.0H270.67999999999995Z M281.7199999999999 -4.12V-7.640000000000001H286.2799999999999V-5.5200000000000005L287.7999999999999 -4.0H296.5199999999999L298.11999999999995 -5.6000000000000005V-10.76L296.55999999999995 -12.32H285.9199999999999L281.7999999999999 -16.4V-23.88L285.9199999999999 -28.0H298.2399999999999L302.3599999999999 -23.88V-20.32H297.79999999999995V-22.48L296.2399999999999 -24.0H287.9199999999999L286.3599999999999 -22.48V-17.84L287.9199999999999 -16.32H298.55999999999995L302.67999999999995 -12.200000000000001V-4.2L298.4799999999999 0.0H285.8399999999999Z M315.0799999999999 -24.04H306.67999999999995V-28.0H328.11999999999995V-24.04H319.7199999999999V0.0H315.0799999999999Z M344.0399999999999 -4.12V-7.640000000000001H348.5999999999999V-5.5200000000000005L350.1199999999999 -4.0H358.8399999999999L360.43999999999994 -5.6000000000000005V-10.76L358.87999999999994 -12.32H348.2399999999999L344.1199999999999 -16.4V-23.88L348.2399999999999 -28.0H360.55999999999995L364.6799999999999 -23.88V-20.32H360.1199999999999V-22.48L358.55999999999995 -24.0H350.2399999999999L348.6799999999999 -22.48V-17.84L350.2399999999999 -16.32H360.87999999999994L364.99999999999994 -12.200000000000001V-4.2L360.7999999999999 0.0H348.1599999999999Z M378.2799999999999 -11.52 368.3999999999999 -28.0H373.4799999999999L380.55999999999995 -15.84H380.63999999999993L387.7199999999999 -28.0H392.79999999999995L382.91999999999996 -11.52V0.0H378.2799999999999Z M396.3999999999999 -4.12V-7.640000000000001H400.9599999999999V-5.5200000000000005L402.4799999999999 -4.0H411.19999999999993L412.79999999999995 -5.6000000000000005V-10.76L411.23999999999995 -12.32H400.5999999999999L396.4799999999999 -16.4V-23.88L400.5999999999999 -28.0H412.91999999999996L417.0399999999999 -23.88V-20.32H412.4799999999999V-22.48L410.91999999999996 -24.0H402.5999999999999L401.0399999999999 -22.48V-17.84L402.5999999999999 -16.32H413.23999999999995L417.35999999999996 -12.200000000000001V-4.2L413.1599999999999 0.0H400.5199999999999Z M429.75999999999993 -24.04H421.35999999999996V-28.0H442.79999999999995V-24.04H434.3999999999999V0.0H429.75999999999993Z M447.59999999999997 -28.0H467.11999999999995V-24.04H452.23999999999995V-16.04H465.96V-12.120000000000001H452.23999999999995V-3.96H467.11999999999995V0.0H447.59999999999997Z M472.71999999999997 -28.0H477.15999999999997L485.71999999999997 -8.72H485.79999999999995L494.35999999999996 -28.0H498.84V0.0H494.4V-18.72H494.31999999999994L487.28 -3.56H484.23999999999995L477.23999999999995 -18.72H477.15999999999997V0.0H472.71999999999997Z" fill="#ffe2c4"/>
<text x="74" y="156" font-size="16.5" fill="#d9a877">A 45-agent AI co-scientist for complex research workflows.</text>
<text x="74" y="182" font-size="12.5" fill="#9a7048">Role-based agents · autonomous cross-validation · research workflow orchestration</text>
<path d="M81 202H205V220L199 226H75V208Z" fill="none" stroke="#ff6a00" stroke-width="1.5" stroke-opacity=".8"/>
<text x="140" y="218" text-anchor="middle" font-size="10" letter-spacing="2" fill="#d9a877">45 AI AGENTS</text>
<path d="M227 202H361V220L355 226H221V208Z" fill="none" stroke="#ff6a00" stroke-width="1.5" stroke-opacity=".8"/>
<text x="291" y="218" text-anchor="middle" font-size="10" letter-spacing="2" fill="#d9a877">7 SYSTEM ROLES</text>
<path d="M389 202H533V220L527 226H383V208Z" fill="none" stroke="#ff6a00" stroke-width="1.5" stroke-opacity=".8"/>
<text x="458" y="218" text-anchor="middle" font-size="10" letter-spacing="2" fill="#d9a877">MAGI VALIDATION</text>
<path d="M78 236H298L304 242V256L298 262H78L72 256V242Z" fill="none" stroke="#ff6a00" stroke-opacity=".22" stroke-width="4.5"/><path d="M78 236H298L304 242V256L298 262H78L72 256V242Z" fill="#10131c" fill-opacity=".8" stroke="#ff6a00" stroke-opacity=".85" stroke-width="1.5"/>
<text x="188" y="253" text-anchor="middle" font-size="11" font-weight="800" letter-spacing="2" fill="#ff9233">READ THE WHITEPAPER →</text>
<circle cx="940" cy="136" r="94" fill="none" stroke="#ff6a00" stroke-opacity=".2" stroke-dasharray="4 8"/>
<path d="M940.0 102.0L940.0 67.0M966.5 114.7L994.0 92.6M973.2 143.4L1007.2 151.0M954.9 166.6L970.1 197.9M925.1 166.6L909.9 197.9M906.8 143.4L872.8 151.0M913.5 114.7L886.0 92.6" stroke="#ff6a00" stroke-opacity=".45" fill="none"/>
<path d="M974.0 136.0L957.0 165.4L923.0 165.4L906.0 136.0L923.0 106.6L957.0 106.6Z" fill="#10131c" fill-opacity=".9" stroke="#ffe2c4" stroke-opacity=".85" stroke-width="2"/>
<path d="M967.0 136.0L953.5 159.4L926.5 159.4L913.0 136.0L926.5 112.6L953.5 112.6Z" fill="none" stroke="#ff6a00" stroke-opacity=".4"/>
<path class="blink" d="M949.0 58.0L944.5 65.8L935.5 65.8L931.0 58.0L935.5 50.2L944.5 50.2Z" fill="#10131c" fill-opacity=".9" stroke="#ff6a00" stroke-opacity=".8" stroke-width="1.5"/>
<path d="M1010.0 87.0L1005.5 94.8L996.5 94.8L992.0 87.0L996.5 79.2L1005.5 79.2Z" fill="#10131c" fill-opacity=".9" stroke="#ff6a00" stroke-opacity=".8" stroke-width="1.5"/>
<path d="M1025.0 153.0L1020.5 160.8L1011.5 160.8L1007.0 153.0L1011.5 145.2L1020.5 145.2Z" fill="#10131c" fill-opacity=".9" stroke="#ff6a00" stroke-opacity=".8" stroke-width="1.5"/>
<path d="M983.0 206.0L978.5 213.8L969.5 213.8L965.0 206.0L969.5 198.2L978.5 198.2Z" fill="#10131c" fill-opacity=".9" stroke="#ff6a00" stroke-opacity=".8" stroke-width="1.5"/>
<path d="M915.0 206.0L910.5 213.8L901.5 213.8L897.0 206.0L901.5 198.2L910.5 198.2Z" fill="#10131c" fill-opacity=".9" stroke="#ff6a00" stroke-opacity=".8" stroke-width="1.5"/>
<path d="M873.0 153.0L868.5 160.8L859.5 160.8L855.0 153.0L859.5 145.2L868.5 145.2Z" fill="#10131c" fill-opacity=".9" stroke="#ff6a00" stroke-opacity=".8" stroke-width="1.5"/>
<path d="M888.0 87.0L883.5 94.8L874.5 94.8L870.0 87.0L874.5 79.2L883.5 79.2Z" fill="#10131c" fill-opacity=".9" stroke="#ff6a00" stroke-opacity=".8" stroke-width="1.5"/>
<text x="940" y="132" text-anchor="middle" font-size="10.5" font-weight="800" letter-spacing="1" fill="#ffe2c4">RESEARCH</text>
<text x="940" y="146" text-anchor="middle" font-size="9" letter-spacing="1" fill="#9a7048">CORE</text>
<text x="796" y="157" text-anchor="end" font-size="10.5" font-weight="700" letter-spacing="1" fill="#ffb000">ø 7 ROLES</text>
<path d="M804 153H842" stroke="#ffb000" stroke-opacity=".8" fill="none"/>
<text x="1000" y="252" text-anchor="middle" font-size="9" letter-spacing="2" fill="#9a7048">NERV SYSTEM WHITEPAPER</text>
<g transform="translate(1118 60)"><path d="M34.0 0.0L17.0 29.4L-17.0 29.4L-34.0 0.0L-17.0 -29.4L17.0 -29.4Z" fill="#10131c" fill-opacity=".9" stroke="#ffb000" stroke-opacity=".25" stroke-width="5"/><path d="M34.0 0.0L17.0 29.4L-17.0 29.4L-34.0 0.0L-17.0 -29.4L17.0 -29.4Z" fill="none" stroke="#ffb000" stroke-width="1.5"/><text y="-3" text-anchor="middle" font-size="9.5" font-weight="800" letter-spacing="1" fill="#ffb000">MAGI</text><text y="10" text-anchor="middle" font-size="7.5" font-weight="800" letter-spacing="1" fill="#ffb000">VALIDATED</text></g>
<rect class="scan" x="10" y="10" width="1" height="250" fill="#ffe2c4" fill-opacity=".14"/>
</svg>
