<svg xmlns="http://www.w3.org/2000/svg" width="1200" height="440" viewBox="0 0 1200 440" role="img" aria-labelledby="title desc">
  <title id="title">AI co-scientist systems architecture</title>
  <desc id="desc">Whiteprint schematic: six capability part boxes routed orthogonally to the NERV AI co-scientist core assembly. FIG.02 of 4.</desc>
  <defs>
    <linearGradient id="bg" x1="0" y1="0" x2="1" y2="1">
      <stop offset="0" stop-color="#ffffff"/><stop offset="1" stop-color="#f3f7fd"/>
    </linearGradient>
    <pattern id="gridFine" width="8" height="8" patternUnits="userSpaceOnUse">
      <path d="M8 0H0V8" fill="none" stroke="#1e40af" stroke-opacity=".06"/>
    </pattern>
    <pattern id="gridBold" width="40" height="40" patternUnits="userSpaceOnUse">
      <path d="M40 0H0V40" fill="none" stroke="#1e40af" stroke-opacity=".09"/>
    </pattern>
    <style>
      text { font-family: ui-monospace,'SF Mono',SFMono-Regular,Menlo,Consolas,'Liberation Mono',monospace; }
      .flow { stroke-dasharray: 5 7; animation: flow 12s linear infinite; }
      .scan { animation: scan 16s linear infinite; }
      .blink { animation: blink 1.6s steps(1) infinite; }
      @keyframes flow { to { stroke-dashoffset: -96; } }
      @keyframes scan { to { transform: translateX(1180px); } }
      @keyframes blink { 0%, 49% { opacity: 1; } 50%, 100% { opacity: .12; } }
      @media (prefers-reduced-motion: reduce) { .flow, .scan, .blink { animation: none; } }
    </style>
  </defs>
  <rect width="1200" height="440" fill="url(#bg)"/>
  <rect width="1200" height="440" fill="url(#gridFine)"/>
  <rect width="1200" height="440" fill="url(#gridBold)"/>
  <rect x="2" y="2" width="1196" height="436" fill="none" stroke="#1e40af" stroke-opacity=".55" stroke-width="2.5"/>
  <rect x="10" y="10" width="1180" height="420" fill="none" stroke="#1e40af" stroke-opacity=".25"/>
  <g stroke="#1e40af" stroke-opacity=".3" stroke-width="6" stroke-dasharray="1 39">
    <line x1="10" y1="13" x2="1190" y2="13"/>
    <line x1="10" y1="427" x2="1190" y2="427"/>
    <line x1="13" y1="10" x2="13" y2="430"/>
    <line x1="1187" y1="10" x2="1187" y2="430"/>
  </g>
  <g stroke="#1e40af" stroke-opacity=".45" fill="none">
    <path d="M30 24v12M24 30h12"/><path d="M1170 24v12M1164 30h12"/>
    <path d="M30 404v12M24 410h12"/><path d="M1170 404v12M1164 410h12"/>
  </g>
  <rect class="scan" x="10" y="10" width="1" height="420" fill="#1e40af" fill-opacity=".12"/>
  <text x="54" y="54" font-size="14" font-weight="700" letter-spacing="3" fill="#2c4d99">AI SYSTEMS ARCHITECTURE</text>
  <text x="1170" y="42" text-anchor="end" font-size="9.5" letter-spacing="2" fill="#6981b8">SHEET 02 / 04</text>
  <g fill="none">
    <g class="flow" stroke="#1e40af" stroke-opacity=".7" stroke-width="1.5">
      <path d="M370 116H410V216H450"/>
      <path d="M600 128V182"/>
      <path d="M370 350H410V264H450"/>
      <path d="M600 352V298"/>
    </g>
    <path d="M830 116H790V216H750" stroke="#1e40af" stroke-opacity=".7" stroke-width="1.5" stroke-dasharray="4 5"/>
    <path d="M830 350H790V264H750" stroke="#dc2626" stroke-opacity=".8" stroke-width="1.5" stroke-dasharray="4 5"/>
  </g>
  <g fill="#1e40af" fill-opacity=".9">
    <circle cx="410" cy="116" r="2"/><circle cx="410" cy="216" r="2"/>
    <circle cx="410" cy="350" r="2"/><circle cx="410" cy="264" r="2"/>
    <circle cx="790" cy="116" r="2"/><circle cx="790" cy="216" r="2"/>
  </g>
  <g fill="#dc2626" fill-opacity=".9">
    <circle cx="790" cy="350" r="2"/><circle cx="790" cy="264" r="2"/>
  </g>
  <rect x="450" y="182" width="300" height="116" fill="#1e40af" fill-opacity=".05" stroke="#1e40af" stroke-opacity=".85" stroke-width="2"/>
  <rect x="456" y="188" width="288" height="104" fill="none" stroke="#1e40af" stroke-opacity=".35"/>
  <text x="600" y="214" text-anchor="middle" font-size="12" font-weight="700" letter-spacing="3" fill="#2c4d99">NERV / MAGI</text>
  <text x="600" y="246" text-anchor="middle" font-size="22" font-weight="800" fill="#17337a">AI Co-Scientist</text>
  <text x="600" y="272" text-anchor="middle" font-size="12" fill="#2c4d99">orchestrate · verify · remember · act</text>
  <g fill="none" stroke="#dc2626" stroke-opacity=".8">
    <path d="M750 182l28 -24h70"/>
  </g>
  <text x="854" y="162" font-size="11" font-weight="700" letter-spacing="1" fill="#dc2626">ø45 AGENTS</text>
  <g font-size="9" font-weight="800" letter-spacing="1">
    <g fill="none" stroke="#1e40af" stroke-opacity=".7">
      <rect x="120" y="84" width="250" height="64" fill="#1e40af" fill-opacity=".04"/>
      <rect x="120" y="74" width="46" height="16"/>
      <rect x="475" y="64" width="250" height="64" fill="#1e40af" fill-opacity=".04"/>
      <rect x="475" y="54" width="46" height="16"/>
      <rect x="830" y="84" width="250" height="64" fill="#1e40af" fill-opacity=".04"/>
      <rect x="830" y="74" width="46" height="16"/>
      <rect x="120" y="318" width="250" height="64" fill="#1e40af" fill-opacity=".04"/>
      <rect x="120" y="308" width="46" height="16"/>
      <rect x="475" y="352" width="250" height="64" fill="#1e40af" fill-opacity=".04"/>
      <rect x="475" y="342" width="46" height="16"/>
    </g>
    <g fill="none" stroke="#dc2626" stroke-opacity=".9">
      <rect x="830" y="318" width="250" height="64" fill="#dc2626" fill-opacity=".05"/>
      <rect x="830" y="308" width="46" height="16"/>
    </g>
    <text x="143" y="86" text-anchor="middle" fill="#2c4d99">PT-01</text>
    <text x="498" y="66" text-anchor="middle" fill="#2c4d99">PT-02</text>
    <text x="853" y="86" text-anchor="middle" fill="#2c4d99">PT-03</text>
    <text x="143" y="320" text-anchor="middle" fill="#2c4d99">PT-04</text>
    <text x="853" y="320" text-anchor="middle" fill="#dc2626">PT-05</text>
    <text x="498" y="354" text-anchor="middle" fill="#2c4d99">PT-06</text>
  </g>
  <g font-size="14.5" font-weight="700" fill="#17337a">
    <text x="136" y="112">Multi-Agent Orchestration</text>
    <text x="491" y="92">Tool-Using Agents</text>
    <text x="846" y="112">Autonomous Validation</text>
    <text x="136" y="346">Long-Term Memory</text>
    <text x="846" y="346">Human in the Loop</text>
    <text x="491" y="380">Research Automation</text>
  </g>
  <g font-size="11" fill="#6981b8">
    <text x="136" y="134">roles · routing · handoffs</text>
    <text x="491" y="114">actions · APIs · workflows</text>
    <text x="846" y="134">critique · consensus · checks</text>
    <text x="136" y="368">context · retrieval · continuity</text>
    <text x="846" y="368">judgment · control · oversight</text>
    <text x="491" y="402">literature · data · writing</text>
  </g>
  <circle class="blink" cx="1062" cy="350" r="3" fill="#dc2626"/>
  <g font-size="9" letter-spacing="1" fill="#6981b8">
    <path d="M54 410h30" stroke="#1e40af" stroke-opacity=".85" stroke-width="1.5" fill="none"/>
    <text x="92" y="413">COMMAND FLOW</text>
    <path d="M54 424h30" stroke="#1e40af" stroke-opacity=".85" stroke-width="1.5" stroke-dasharray="4 5" fill="none"/>
    <text x="92" y="427">VALIDATION FEEDBACK</text>
  </g>
  <g font-size="8.5">
    <rect x="884" y="404" width="306" height="24" fill="none" stroke="#1e40af" stroke-opacity=".5"/>
    <path d="M946 404v24M1086 404v24M1144 404v24" stroke="#1e40af" stroke-opacity=".35"/>
    <text x="915" y="419" text-anchor="middle" font-weight="800" letter-spacing="1" fill="#dc2626">FIG.02</text>
    <text x="1016" y="419" text-anchor="middle" fill="#2c4d99">DWG NO. TL-2026-02</text>
    <text x="1115" y="419" text-anchor="middle" fill="#2c4d99">REV 2026.07</text>
    <text x="1167" y="419" text-anchor="middle" fill="#2c4d99">SCALE 1:1</text>
  </g>
</svg>
