<svg xmlns="http://www.w3.org/2000/svg" width="1200" height="440" viewBox="0 0 1200 440" role="img" aria-labelledby="title desc">
<title id="title">AI systems architecture — NERV / MAGI co-scientist</title>
<desc id="desc">NERV printed-document style orthogonal wiring diagram: six capability modules routed to the AI co-scientist core. FIG.02 of 5.</desc>
<defs><linearGradient id="bg" x1="0" y1="0" x2="0" y2="1"><stop offset="0" stop-color="#f4efe6"/><stop offset="1" stop-color="#ece5d8"/></linearGradient>
<pattern id="gridFine" width="8" height="8" patternUnits="userSpaceOnUse"><path d="M8 0H0V8" fill="none" stroke="#1a1b1e" stroke-opacity=".08"/></pattern>
<pattern id="gridBold" width="40" height="40" patternUnits="userSpaceOnUse"><path d="M40 0H0V40" fill="none" stroke="#1a1b1e" stroke-opacity=".12"/></pattern>
<style>text{font-family:ui-monospace,'SF Mono',SFMono-Regular,Menlo,Consolas,'Liberation Mono',monospace;}</style></defs>
<rect width="1200" height="440" fill="url(#bg)"/>
<rect width="1200" height="440" fill="url(#gridFine)"/>
<rect width="1200" height="440" fill="url(#gridBold)"/>
<line x1="0" y1="140" x2="1200" y2="140" stroke="#d92720" stroke-opacity=".14"/>
<rect x="2" y="2" width="1196" height="436" fill="none" stroke="#2a2b30" stroke-opacity=".6" stroke-width="2.5"/>
<rect x="10" y="10" width="1180" height="420" fill="none" stroke="#2a2b30" stroke-opacity=".28"/>
<g stroke="#2a2b30" stroke-opacity=".3" stroke-width="6" stroke-dasharray="1 39"><line x1="10" y1="13" x2="1190" y2="13"/><line x1="10" y1="427" x2="1190" y2="427"/><line x1="13" y1="10" x2="13" y2="430"/><line x1="1187" y1="10" x2="1187" y2="430"/></g>
<path d="M22 36V22H36M1164 22H1178V36M1178 404V418H1164M36 418H22V404" fill="none" stroke="#d92720" stroke-opacity=".7" stroke-width="2"/>
<text x="54" y="54" font-size="14" font-weight="700" letter-spacing="3" fill="#1a1b1e">AI SYSTEMS ARCHITECTURE</text>
<text x="1170" y="42" text-anchor="end" font-size="9.5" letter-spacing="2" fill="#6b6558">SHEET 02 / 05</text>
<g fill="none"><g stroke="#2a2b30" stroke-opacity=".55" stroke-width="1.5"><path d="M370 116H410V216H450"/><path d="M600 128V182"/><path d="M370 350H410V264H450"/><path d="M600 352V298"/></g><path stroke-dasharray="5 7" d="M830 116H790V216H750" stroke="#2a2b30" stroke-opacity=".55" stroke-width="1.5"/><path stroke-dasharray="5 7" d="M830 350H790V264H750" stroke="#d92720" stroke-opacity=".7" stroke-width="1.5"/></g>
<g fill="#2a2b30" fill-opacity=".9"><circle cx="410" cy="116" r="2"/><circle cx="410" cy="216" r="2"/><circle cx="410" cy="350" r="2"/><circle cx="410" cy="264" r="2"/><circle cx="790" cy="116" r="2"/><circle cx="790" cy="216" r="2"/></g>
<g fill="#d92720" fill-opacity=".9"><circle cx="790" cy="350" r="2"/><circle cx="790" cy="264" r="2"/></g>
<path d="M464 182H750V284L736 298H450V196Z" fill="#1a1b1e" fill-opacity=".04" stroke="#2a2b30" stroke-opacity=".7" stroke-width="2"/>
<path d="M470 188H730V292L716 292" fill="none" stroke="none"/>
<path d="M466 188H744V282L734 292H456V198Z" fill="none" fill-opacity="0" stroke="#2a2b30" stroke-opacity=".7" stroke-width="1"/>
<text x="600" y="214" text-anchor="middle" font-size="12" font-weight="700" letter-spacing="3" fill="#d92720">NERV / MAGI</text>
<text x="600" y="246" text-anchor="middle" font-size="22" font-weight="800" fill="#1a1b1e">AI Co-Scientist</text>
<text x="600" y="272" text-anchor="middle" font-size="12" fill="#6b6558">orchestrate · verify · remember · act</text>
<g fill="none" stroke="#d92720" stroke-opacity=".8"><path d="M750 182l28 -24h70"/></g>
<text x="854" y="162" font-size="11" font-weight="700" letter-spacing="1" fill="#d92720">ø45 AGENTS</text>
<path d="M128 84H370V140L362 148H120V92Z" fill="#1a1b1e" fill-opacity=".03" stroke="#2a2b30" stroke-opacity=".7" stroke-width="1.2"/>
<text x="120" y="80" font-size="9" font-weight="800" letter-spacing="1" fill="#6b6558">[ PT-01 ]</text>
<text x="136" y="112" font-size="14.5" font-weight="700" fill="#1a1b1e">Multi-Agent Orchestration</text>
<text x="136" y="134" font-size="11" fill="#6b6558">roles · routing · handoffs</text>
<path d="M483 64H725V120L717 128H475V72Z" fill="#1a1b1e" fill-opacity=".03" stroke="#2a2b30" stroke-opacity=".7" stroke-width="1.2"/>
<text x="475" y="60" font-size="9" font-weight="800" letter-spacing="1" fill="#6b6558">[ PT-02 ]</text>
<text x="491" y="92" font-size="14.5" font-weight="700" fill="#1a1b1e">Tool-Using Agents</text>
<text x="491" y="114" font-size="11" fill="#6b6558">actions · APIs · workflows</text>
<path d="M838 84H1080V140L1072 148H830V92Z" fill="#1a1b1e" fill-opacity=".03" stroke="#2a2b30" stroke-opacity=".7" stroke-width="1.2"/>
<text x="830" y="80" font-size="9" font-weight="800" letter-spacing="1" fill="#6b6558">[ PT-03 ]</text>
<text x="846" y="112" font-size="14.5" font-weight="700" fill="#1a1b1e">Autonomous Validation</text>
<text x="846" y="134" font-size="11" fill="#6b6558">critique · consensus · checks</text>
<path d="M128 318H370V374L362 382H120V326Z" fill="#1a1b1e" fill-opacity=".03" stroke="#2a2b30" stroke-opacity=".7" stroke-width="1.2"/>
<text x="120" y="314" font-size="9" font-weight="800" letter-spacing="1" fill="#6b6558">[ PT-04 ]</text>
<text x="136" y="346" font-size="14.5" font-weight="700" fill="#1a1b1e">Long-Term Memory</text>
<text x="136" y="368" font-size="11" fill="#6b6558">context · retrieval · continuity</text>
<path d="M838 318H1080V374L1072 382H830V326Z" fill="#d92720" fill-opacity=".05" stroke="#d92720" stroke-opacity=".7" stroke-width="1.5"/>
<text x="830" y="314" font-size="9" font-weight="800" letter-spacing="1" fill="#d92720">[ PT-05 ]</text>
<text x="846" y="346" font-size="14.5" font-weight="700" fill="#d92720">Human in the Loop</text>
<text x="846" y="368" font-size="11" fill="#6b6558">judgment · control · oversight</text>
<path d="M483 352H725V408L717 416H475V360Z" fill="#1a1b1e" fill-opacity=".03" stroke="#2a2b30" stroke-opacity=".7" stroke-width="1.2"/>
<text x="475" y="348" font-size="9" font-weight="800" letter-spacing="1" fill="#6b6558">[ PT-06 ]</text>
<text x="491" y="380" font-size="14.5" font-weight="700" fill="#1a1b1e">Research Automation</text>
<text x="491" y="402" font-size="11" fill="#6b6558">literature · data · writing</text>
<circle cx="1062" cy="350" r="3" fill="#d92720"/>
<g font-size="9" letter-spacing="1" fill="#6b6558"><path d="M54 398h30" stroke="#2a2b30" stroke-opacity=".85" stroke-width="1.5" fill="none"/><text x="92" y="401">COMMAND FLOW</text><path d="M54 412h30" stroke="#d92720" stroke-opacity=".85" stroke-width="1.5" stroke-dasharray="4 5" fill="none"/><text x="92" y="415">VALIDATION FEEDBACK</text></g>
<g font-size="8"><rect x="808" y="404" width="382" height="24" fill="none" stroke="#2a2b30" stroke-opacity=".5"/><path d="M872 404v24M1020 404v24M1084 404v24" stroke="#2a2b30" stroke-opacity=".35"/><text x="840" y="419" text-anchor="middle" font-weight="800" letter-spacing="1" fill="#d92720">FIG.02</text><text x="946" y="419" text-anchor="middle" fill="#6b6558">DOC NO. NERV-TL-2026-02</text><text x="1052" y="419" text-anchor="middle" fill="#6b6558">REV 2026.07</text><text x="1137" y="419" text-anchor="middle" fill="#6b6558">MAGI CHECKED</text></g>
</svg>
